<svg id="Layer_1" data-name="Layer 1" xmlns="http://www.w3.org/2000/svg" viewBox="0 0 256 256"><defs><style>.cls-1{fill:#787878;}</style></defs><title>minimal fairy tale 15</title><path class="cls-1" d="M221.28,53.25H85.87A3.41,3.41,0,0,0,84.68,53a16.65,16.65,0,1,1,0-33.29H190.23a3.51,3.51,0,1,0,0-7H84.68A23.68,23.68,0,0,0,61,36.36V219.64a23.68,23.68,0,0,0,23.65,23.65h136.6a3.5,3.5,0,0,0,3.5-3.5v-183A3.5,3.5,0,0,0,221.28,53.25ZM68,107.58a29.24,29.24,0,0,0,13.14,3.64v71.72A21,21,0,0,1,68,175Zm13.14-3.39c-6.23-.47-10.39-2.29-13.14-5.69V92.68A28,28,0,0,0,81.17,98ZM68,184.75a28.17,28.17,0,0,0,13.14,5.3v6.21c-6.23-.47-10.39-2.3-13.14-5.69ZM88.18,84.94a28.46,28.46,0,0,0,24.69-24.69h80.22a28.45,28.45,0,0,0,24.68,24.69v30.29H182.66a3.51,3.51,0,0,0-3.4,2.68c-2,8.17-11.07,9.65-12.41,9.82h-11l-9.13-11.21c-.07-.08-.17-.12-.25-.2a1.81,1.81,0,0,0-.21-.18,3.33,3.33,0,0,0-.85-.57c-.13-.06-.27-.08-.41-.13a3.56,3.56,0,0,0-.85-.17c-.07,0-.13,0-.2,0a4.42,4.42,0,0,0-.5.1,2.9,2.9,0,0,0-.57.12,3.37,3.37,0,0,0-.94.49s-.1,0-.14.08a.1.1,0,0,0,0,0,3.43,3.43,0,0,0-1.31,2.67c0,9.12-7.12,13-18.73,18.55l-1.91.92c-.07,0-.12.1-.19.13a3.71,3.71,0,0,0-.54.42,3.38,3.38,0,0,0-.5.5c0,.06-.12.09-.16.15a3.33,3.33,0,0,0-.16.4,3.08,3.08,0,0,0-.27.65,3.91,3.91,0,0,0-.1.66,4.85,4.85,0,0,0,0,.66,3.43,3.43,0,0,0,.18.7,3,3,0,0,0,.11.4c0,.09.11.16.15.24l.21.3a3.51,3.51,0,0,0,.74.75s.06.07.1.1l.1.06,0,0c2.4,1.6,4.87,3,7.25,4.33,8.49,4.77,13.69,8.07,13.69,15.3a3.45,3.45,0,0,0,1.31,2.67s0,0,0,0,.13.06.19.11a3.81,3.81,0,0,0,.79.44,3.5,3.5,0,0,0,.91.18,2.44,2.44,0,0,0,.26.06h0a3.37,3.37,0,0,0,.55-.12,3.57,3.57,0,0,0,.8-.18,3.4,3.4,0,0,0,.72-.49,4.23,4.23,0,0,0,.42-.32c.07-.08.17-.11.23-.19L155.83,155h11c1.34.18,10.44,1.66,12.41,9.82a3.5,3.5,0,0,0,3.4,2.69h35.11V211.6a28.45,28.45,0,0,0-24.68,24.68H112.87A28.46,28.46,0,0,0,88.18,211.6Zm57.65,71.23c-2.91-6.42-9.36-10.06-15.65-13.59l-1.53-.88c7.4-3.67,14.33-7.87,17.27-15l5.53,6.79a3.48,3.48,0,0,0,2.71,1.29H167.4c.58-.06,13.4-1.44,17.82-12.49h32.55v38.24H185.22c-4.42-11-17.26-12.43-18.16-12.51h-12.9a3.49,3.49,0,0,0-2.71,1.3Zm71.94-95.92V77.88a21.48,21.48,0,0,1-17.63-17.63ZM88.18,77.88V60.25h17.63A21.48,21.48,0,0,1,88.18,77.88Zm-7-18.16V90.87A21,21,0,0,1,68,83V53.14A23.55,23.55,0,0,0,81.17,59.72ZM68,219.64v-20a29.12,29.12,0,0,0,13.14,3.64v32.61A16.66,16.66,0,0,1,68,219.64Zm20.15,16.64V218.65a21.48,21.48,0,0,1,17.63,17.63Zm129.59,0H200.14a21.48,21.48,0,0,1,17.63-17.63Z"/><path class="cls-1" d="M87.89,43.65a3.51,3.51,0,0,0,0,7H188a3.51,3.51,0,1,0,0-7Z"/><path class="cls-1" d="M201.18,50.66H205a3.51,3.51,0,0,0,0-7h-3.8a3.51,3.51,0,0,0,0,7Z"/><path class="cls-1" d="M196,146v8a3.51,3.51,0,0,0,7,0v-8a10,10,0,1,0-7,0Zm3.51-12.4a3,3,0,1,1-3,3A3,3,0,0,1,199.46,133.55Z"/></svg>