<svg id="Layer_1" data-name="Layer 1" xmlns="http://www.w3.org/2000/svg" viewBox="0 0 256 256"><defs><style>.cls-1{fill:#787878;}</style></defs><title>minimal fairy tale 2</title><path class="cls-1" d="M57.31,164.57a28.37,28.37,0,1,0,28.36,28.36A28.39,28.39,0,0,0,57.31,164.57Zm0,49.72a21.36,21.36,0,1,1,21.35-21.36A21.38,21.38,0,0,1,57.31,214.29Z"/><path class="cls-1" d="M198.69,164.57a28.37,28.37,0,1,0,28.36,28.36A28.4,28.4,0,0,0,198.69,164.57Zm0,49.72A21.36,21.36,0,1,1,220,192.93,21.38,21.38,0,0,1,198.69,214.29Z"/><path class="cls-1" d="M248.37,146.54a13.37,13.37,0,0,0-18.89-.56,11.41,11.41,0,0,0-.46,16.1,9.75,9.75,0,0,0,12.68,1.36,3.51,3.51,0,0,0-4-5.78,2.82,2.82,0,0,1-3.62-.39,4.39,4.39,0,0,1,.19-6.19,6.35,6.35,0,0,1,9,.26,8.8,8.8,0,0,1-.37,12.46,11.87,11.87,0,0,1-16.8-.49,3.05,3.05,0,0,0-.32-.22,40.32,40.32,0,0,0-64.14,13.84c0,.08-5.18,7.86-33.66,7.86-28.07,0-33.46-7.56-33.51-7.56h0a40.35,40.35,0,0,0-64.42-14h0s-.1,0-.14.1a11.88,11.88,0,0,1-16.81.49,8.82,8.82,0,0,1-.37-12.46,6.36,6.36,0,0,1,9-.26,4.38,4.38,0,0,1,.18,6.19,2.8,2.8,0,0,1-3.62.39,3.5,3.5,0,0,0-4,5.78A9.74,9.74,0,0,0,27,162.08a11.38,11.38,0,0,0-.46-16.1,13.37,13.37,0,0,0-18.89.56,15.83,15.83,0,0,0,.66,22.36,18.76,18.76,0,0,0,13,5.15h.57a18.72,18.72,0,0,0,12.75-5.54,1.42,1.42,0,0,0,.23-.14,33.36,33.36,0,0,1,53.3,11.74c.93,2,7.22,11.7,39.9,11.7s39-9.74,40-11.84a33.35,33.35,0,0,1,53.23-11.6,2.9,2.9,0,0,0,.33.2A18.73,18.73,0,0,0,234.19,174h.57a18.81,18.81,0,0,0,13-5.15,15.83,15.83,0,0,0,.65-22.36Z"/><path class="cls-1" d="M98.51,92H82.16a3.5,3.5,0,0,0-3.5,3.5v22.18a50.27,50.27,0,0,0,17.57,38.12,3.47,3.47,0,0,0,2.28.85,3.41,3.41,0,0,0,1.46-.32,3.49,3.49,0,0,0,2-3.18V95.48A3.51,3.51,0,0,0,98.51,92ZM95,144.44a43.12,43.12,0,0,1-9.34-26.78V99H95Z"/><path class="cls-1" d="M173.83,92H157.48a3.5,3.5,0,0,0-3.5,3.5v57.65a3.48,3.48,0,0,0,2,3.18,3.41,3.41,0,0,0,1.46.32,3.49,3.49,0,0,0,2.28-.85,50.25,50.25,0,0,0,17.57-38.12V95.48A3.5,3.5,0,0,0,173.83,92Zm-3.51,25.68A43.12,43.12,0,0,1,161,144.44V99h9.34Z"/><path class="cls-1" d="M52.46,85.93c.27,0,.53,0,.79,0a11.41,11.41,0,0,0,11.36-10.6A9.77,9.77,0,0,0,57,65.11,3.51,3.51,0,0,0,55.45,72a2.8,2.8,0,0,1,2.16,2.92,4.39,4.39,0,0,1-4.67,4.07,6.35,6.35,0,0,1-5.89-6.78A8.8,8.8,0,0,1,56.45,64a11.9,11.9,0,0,1,11,12.68s0,0,0,.08v40.89a60.55,60.55,0,0,0,39.39,56.63,4.09,4.09,0,0,0,.49.18,59.45,59.45,0,0,0,41.21,0,4.68,4.68,0,0,0,.48-.18,60.55,60.55,0,0,0,39.42-56.64V76a11.88,11.88,0,0,1,11-12,8.86,8.86,0,0,1,9.39,8.19A6.35,6.35,0,0,1,203,78.94a4.36,4.36,0,0,1-4.67-4.07A2.81,2.81,0,0,1,200.52,72,3.51,3.51,0,1,0,199,65.11a9.77,9.77,0,0,0-7.61,10.24A11.41,11.41,0,0,0,202.71,86c.26,0,.53,0,.79,0a13.36,13.36,0,0,0,12.41-14.25A15.82,15.82,0,0,0,199,57,18.92,18.92,0,0,0,183.1,68.11a38.07,38.07,0,0,1-12.6-10.69A47.16,47.16,0,0,0,158,46.12c-8.93-5.53-16.45-4.91-21-3.54-1.44-4.67-4.87-7.88-9-7.88s-7.53,3.21-9,7.88c-4.57-1.37-12.09-2-21,3.54a47.32,47.32,0,0,0-12.52,11.3,38.06,38.06,0,0,1-11.33,10L72.84,68A18.92,18.92,0,0,0,56.93,57,15.8,15.8,0,0,0,40.06,71.68a13.36,13.36,0,0,0,12.4,14.25ZM138,62.41a10.47,10.47,0,0,1-19.87.79s0-.05,0-.07c-.09-.23-.16-.48-.23-.72A113.5,113.5,0,0,1,138,62.41ZM179,74a6.9,6.9,0,0,1-4.62,1.82,7,7,0,0,1-7-6.81A123.44,123.44,0,0,1,179,74Zm-26.13-1.28a8.18,8.18,0,0,1-8.17-8.17s0,0,0-.06c.12-.41.28-.79.37-1.21a114.32,114.32,0,0,1,15.62,3.52A8.15,8.15,0,0,1,152.89,72.68Zm-42-9.42a17,17,0,0,0,.51,1.62,8.13,8.13,0,0,1-16,1.78A118.88,118.88,0,0,1,110.88,63.26ZM88.78,68.8v0a7,7,0,0,1-7,7,6.92,6.92,0,0,1-4.77-2l.55-.32A108.45,108.45,0,0,1,88.78,68.8Zm23.15,99.85V99H144v69.67a53.48,53.48,0,0,1-32.1,0ZM151,165.83V95.48a3.5,3.5,0,0,0-3.5-3.5H108.43a3.51,3.51,0,0,0-3.51,3.5v70.34a53.5,53.5,0,0,1-30.41-48.19V80.76a14,14,0,0,0,19.13-4.61,15,15,0,0,0,22.55-3.8,17.32,17.32,0,0,0,23.71-.11,15,15,0,0,0,22.61,3.91,14,14,0,0,0,18.93,4.73l.05,36.75A53.5,53.5,0,0,1,151,165.83Zm3.25-113.75a37.43,37.43,0,0,1,9.53,8.29,119.82,119.82,0,0,0-28-5.16,15.33,15.33,0,0,0,1.71-5.42C140.16,48.68,146.31,47.14,154.29,52.08ZM128,41.71c1,0,2.71,2.23,2.71,5.87s-1.75,5.88-2.71,5.88-2.71-2.23-2.71-5.88S127,41.71,128,41.71ZM101.67,52.08c8-4.94,14.14-3.4,16.75-2.29a15.24,15.24,0,0,0,1.73,5.45,126.05,126.05,0,0,0-28,5.11A37.47,37.47,0,0,1,101.67,52.08Z"/></svg>