<svg id="Layer_1" data-name="Layer 1" xmlns="http://www.w3.org/2000/svg" viewBox="0 0 256 256"><defs><style>.cls-1{fill:#787878;}</style></defs><title>minimal fairy tale 3</title><path class="cls-1" d="M91.63,79.18h72.74a3.51,3.51,0,0,0,2.55-5.91l-35-37.22V28l6.9,1.7a3.93,3.93,0,0,0-.06,3.85,3.67,3.67,0,0,0,2.72,1.83c.85.18,4.75,1.35,8,2.35a3.46,3.46,0,0,0,1,.16,3.51,3.51,0,0,0,1-6.86l-4.63-1.41.21-.33A3.52,3.52,0,0,0,144.94,24L129.2,20.12c-.14,0-.28,0-.42,0s-.27-.08-.42-.08-.17.05-.27.05a4.11,4.11,0,0,0-.68.14,4.29,4.29,0,0,0-.63.23,3.64,3.64,0,0,0-.52.35,3.35,3.35,0,0,0-.52.47,4.43,4.43,0,0,0-.66,1.18c0,.09-.09.15-.12.24s0,.28,0,.43-.08.27-.08.41V35.27l-35.78,38a3.51,3.51,0,0,0,2.55,5.91Zm36.37-37,28.26,30H99.74Z"/><path class="cls-1" d="M235,103.34H219.78a3.49,3.49,0,0,0-3.5,3.5v6.62H214v-6.62a3.49,3.49,0,0,0-3.5-3.5H195.26a3.5,3.5,0,0,0-3.51,3.5v6.62H189.5v-6.62a3.5,3.5,0,0,0-3.51-3.5H170.73a3.5,3.5,0,0,0-3.5,3.5v26.35a3.53,3.53,0,0,0,1,2.44l5.1,5.26v9.4H153.07V131.14l10.16-18.51a3.44,3.44,0,0,0,.32-2.3,3.33,3.33,0,0,0,.11-.53V84.6a3.51,3.51,0,0,0-3.51-3.51H144.9a3.51,3.51,0,0,0-3.51,3.51v6.62h-2.26V84.6a3.5,3.5,0,0,0-3.5-3.51H120.37a3.5,3.5,0,0,0-3.5,3.51v6.62h-2.26V84.6a3.51,3.51,0,0,0-3.51-3.51H95.85a3.51,3.51,0,0,0-3.51,3.51V111a1,1,0,0,0,0,.17,3.29,3.29,0,0,0,.14.68,3.38,3.38,0,0,0,.2.66c0,.06,0,.12,0,.17l10.16,18.51v19.15H82.69v-9.4l5.1-5.26a3.53,3.53,0,0,0,1-2.44V106.84a3.5,3.5,0,0,0-3.5-3.5H70a3.5,3.5,0,0,0-3.51,3.5v6.62H64.25v-6.62a3.5,3.5,0,0,0-3.51-3.5H45.48a3.49,3.49,0,0,0-3.5,3.5v6.62H39.72v-6.62a3.49,3.49,0,0,0-3.5-3.5H21a3.5,3.5,0,0,0-3.51,3.5v26.35a3.54,3.54,0,0,0,1,2.44l5.09,5.26v16.36a3.66,3.66,0,0,0,0,.57v74.66a3.51,3.51,0,0,0,3.51,3.5H229a3.5,3.5,0,0,0,3.5-3.5V153.8c0-.11,0-.21,0-.32V140.89l5.09-5.26a3.54,3.54,0,0,0,1-2.44V106.84A3.5,3.5,0,0,0,235,103.34ZM109.51,128.56,99.35,110.05v-22h8.25v6.62a3.51,3.51,0,0,0,3.5,3.51h9.27a3.51,3.51,0,0,0,3.51-3.51V88.1h8.24v6.62a3.51,3.51,0,0,0,3.51,3.51h9.27a3.51,3.51,0,0,0,3.5-3.51V88.1h8.25v21.7a1.16,1.16,0,0,0,0,.18l-10.2,18.58a3.5,3.5,0,0,0-.43,1.68v20H109.94v-20A3.5,3.5,0,0,0,109.51,128.56Zm15,100.41H103.26V204a24.76,24.76,0,0,1,21.23-24.47Zm7,0V179.48A24.76,24.76,0,0,1,152.74,204v25Zm100-97.2-5.1,5.26a3.53,3.53,0,0,0-1,2.44V153.8c0,.1,0,.2,0,.31V229H159.75V204a31.75,31.75,0,0,0-63.5,0v25H30.59V157.25a3.68,3.68,0,0,0-.05-.58v-17.2a3.53,3.53,0,0,0-1-2.44l-5.1-5.26V110.34h8.25V117a3.51,3.51,0,0,0,3.51,3.5h9.26A3.51,3.51,0,0,0,49,117v-6.63h8.25V117a3.5,3.5,0,0,0,3.5,3.5H70a3.5,3.5,0,0,0,3.5-3.5v-6.63h8.25v21.43L76.67,137a3.49,3.49,0,0,0-1,2.44V153.8a3.51,3.51,0,0,0,3.51,3.5h97.62a3.51,3.51,0,0,0,3.51-3.5V139.47a3.49,3.49,0,0,0-1-2.44l-5.09-5.26V110.34h8.25V117a3.5,3.5,0,0,0,3.5,3.5h9.27a3.5,3.5,0,0,0,3.5-3.5v-6.63H207V117a3.51,3.51,0,0,0,3.51,3.5h9.26a3.51,3.51,0,0,0,3.51-3.5v-6.63h8.25Z"/><path class="cls-1" d="M55.48,153.8V138.06a3.51,3.51,0,1,0-7,0V153.8a3.51,3.51,0,0,0,7,0Z"/><path class="cls-1" d="M204,134.55a3.51,3.51,0,0,0-3.5,3.51V153.8a3.51,3.51,0,0,0,7,0V138.06A3.51,3.51,0,0,0,204,134.55Z"/><path class="cls-1" d="M128,132.72a3.5,3.5,0,0,0,3.5-3.5V113.48a3.51,3.51,0,0,0-7,0v15.74A3.51,3.51,0,0,0,128,132.72Z"/><path class="cls-1" d="M138.1,205.54a3.5,3.5,0,0,0-3.5,3.5v3.79a3.51,3.51,0,0,0,7,0V209A3.51,3.51,0,0,0,138.1,205.54Z"/><path class="cls-1" d="M117.89,216.33a3.51,3.51,0,0,0,3.51-3.5V209a3.51,3.51,0,0,0-7,0v3.79A3.5,3.5,0,0,0,117.89,216.33Z"/><path class="cls-1" d="M190.13,189.34a14.24,14.24,0,0,0-14.22,14.22v10.82a3.5,3.5,0,0,0,3.5,3.51h21.43a3.51,3.51,0,0,0,3.51-3.51V203.56A14.24,14.24,0,0,0,190.13,189.34Zm7.21,21.54H182.91v-7.32a7.22,7.22,0,0,1,14.43,0Z"/><path class="cls-1" d="M65.87,189.34a14.24,14.24,0,0,0-14.22,14.22v10.82a3.51,3.51,0,0,0,3.5,3.51H76.59a3.5,3.5,0,0,0,3.5-3.51V203.56A14.24,14.24,0,0,0,65.87,189.34Zm7.22,21.54H58.66v-7.32a7.22,7.22,0,0,1,14.43,0Z"/></svg>