<svg id="Layer_1" data-name="Layer 1" xmlns="http://www.w3.org/2000/svg" viewBox="0 0 256 256"><defs><style>.cls-1{fill:#787878;}</style></defs><title>minimal fairy tale 10</title><path class="cls-1" d="M212.48,187.45H45.27a3.49,3.49,0,0,0-3.45,4.07l3.64,22a3.51,3.51,0,0,0,3.46,2.93H208.83a3.5,3.5,0,0,0,3.46-2.93l3.65-22a3.49,3.49,0,0,0-3.46-4.07Zm-6.62,22h-154l-2.48-15H208.35Z"/><path class="cls-1" d="M31.08,87A11.16,11.16,0,1,0,19.92,98.16,11.17,11.17,0,0,0,31.08,87ZM19.92,91.15A4.15,4.15,0,1,1,24.07,87,4.15,4.15,0,0,1,19.92,91.15Z"/><path class="cls-1" d="M236.08,75.85A11.16,11.16,0,1,0,247.24,87,11.17,11.17,0,0,0,236.08,75.85Zm0,15.3A4.15,4.15,0,1,1,240.23,87,4.15,4.15,0,0,1,236.08,91.15Z"/><path class="cls-1" d="M167.89,64.79a12.63,12.63,0,1,0-12.63-12.63A12.64,12.64,0,0,0,167.89,64.79Zm0-18.26a5.63,5.63,0,1,1-5.62,5.63A5.64,5.64,0,0,1,167.89,46.53Z"/><path class="cls-1" d="M89.39,64.79A12.63,12.63,0,1,0,76.76,52.16,12.64,12.64,0,0,0,89.39,64.79Zm0-18.26a5.63,5.63,0,1,1-5.62,5.63A5.64,5.64,0,0,1,89.39,46.53Z"/><path class="cls-1" d="M230.25,98.17a3.49,3.49,0,0,0-4,.27l-38.35,31L167,69.5a3.5,3.5,0,0,0-6.35-.58L128,126l-32.61-57A3.44,3.44,0,0,0,92,67.17a3.48,3.48,0,0,0-3,2.33L68.12,129.4l-38.35-31a3.5,3.5,0,0,0-5.63,3.42l15.94,78.62a3.49,3.49,0,0,0,3.43,2.8h169a3.63,3.63,0,0,0,1.27-.25c.13-.06.24-.14.37-.21a3.73,3.73,0,0,0,.7-.47,4.42,4.42,0,0,0,.75-1,3.71,3.71,0,0,0,.19-.46c0-.14.12-.25.15-.39l15.94-78.62A3.51,3.51,0,0,0,230.25,98.17Zm-20.63,78.11H46.37l-1.09-5.41H177a3.51,3.51,0,0,0,0-7H43.86L32.94,110l34.64,28a3.5,3.5,0,0,0,5.51-1.57l20-57.33L125,134.75c0,.07.12.11.17.19a4.45,4.45,0,0,0,.41.47,3.48,3.48,0,0,0,.58.5c.06,0,.09.1.15.14s.25.07.38.12a3.49,3.49,0,0,0,.71.24,5.3,5.3,0,0,0,1.3,0,3.49,3.49,0,0,0,.71-.24c.12,0,.26-.06.37-.12s.1-.1.16-.14a3.48,3.48,0,0,0,.58-.51,3.55,3.55,0,0,0,.41-.46c.05-.08.12-.12.16-.19l31.84-55.68,20,57.33a3.51,3.51,0,0,0,2.35,2.21,3.46,3.46,0,0,0,3.16-.64l34.65-28Z"/><path class="cls-1" d="M184.23,167.36a3.51,3.51,0,0,0,3.5,3.51h2.93a3.51,3.51,0,0,0,0-7h-2.93A3.5,3.5,0,0,0,184.23,167.36Z"/><path class="cls-1" d="M61.36,206.45a4.07,4.07,0,1,0-4.07-4.06A4.06,4.06,0,0,0,61.36,206.45Z"/><path class="cls-1" d="M76.36,206.45a4.07,4.07,0,1,0-4.07-4.06A4.07,4.07,0,0,0,76.36,206.45Z"/><path class="cls-1" d="M91.37,206.45a4.07,4.07,0,1,0-4.07-4.06A4.06,4.06,0,0,0,91.37,206.45Z"/><path class="cls-1" d="M106.37,206.45a4.07,4.07,0,1,0-4.07-4.06A4.07,4.07,0,0,0,106.37,206.45Z"/><path class="cls-1" d="M121.37,206.45a4.07,4.07,0,1,0-4.06-4.06A4.07,4.07,0,0,0,121.37,206.45Z"/><path class="cls-1" d="M136.38,206.45a4.07,4.07,0,1,0-4.07-4.06A4.07,4.07,0,0,0,136.38,206.45Z"/><path class="cls-1" d="M151.38,206.45a4.07,4.07,0,1,0-4.06-4.06A4.07,4.07,0,0,0,151.38,206.45Z"/><path class="cls-1" d="M166.39,206.45a4.07,4.07,0,1,0-4.07-4.06A4.06,4.06,0,0,0,166.39,206.45Z"/><path class="cls-1" d="M181.39,206.45a4.07,4.07,0,1,0-4.06-4.06A4.07,4.07,0,0,0,181.39,206.45Z"/><path class="cls-1" d="M196.4,206.45a4.07,4.07,0,1,0-4.07-4.06A4.06,4.06,0,0,0,196.4,206.45Z"/><path class="cls-1" d="M95,106.33A3.5,3.5,0,0,0,92,110.2L95,137.55a3.5,3.5,0,0,0,3.48,3.11,2.55,2.55,0,0,0,.39,0,3.5,3.5,0,0,0,3.09-3.87l-3.08-27.36A3.47,3.47,0,0,0,95,106.33Z"/><path class="cls-1" d="M160.74,106.33a3.46,3.46,0,0,0-3.88,3.08l-3.09,27.36a3.51,3.51,0,0,0,3.09,3.87,2.75,2.75,0,0,0,.4,0,3.5,3.5,0,0,0,3.48-3.11l3.09-27.35A3.51,3.51,0,0,0,160.74,106.33Z"/></svg>