<svg id="Layer_1" data-name="Layer 1" xmlns="http://www.w3.org/2000/svg" viewBox="0 0 256 256"><defs><style>.cls-1{fill:#787878;}</style></defs><title>minimal fairy tale 11</title><path class="cls-1" d="M40.8,180.89a3.51,3.51,0,0,0,3.51-3.5v-2.11a3.51,3.51,0,0,0-7,0v2.11A3.5,3.5,0,0,0,40.8,180.89Z"/><path class="cls-1" d="M217.05,62.53c-.61.06-1.23.1-1.85.1a3.51,3.51,0,1,0,0,7,23.45,23.45,0,0,0,2.66-.15,3.5,3.5,0,0,0-.81-7Z"/><path class="cls-1" d="M215.6,24l-.1,0H59.88A22.6,22.6,0,0,0,37.3,46.57V165.78a3.51,3.51,0,0,0,7,0V46.57A15.59,15.59,0,0,1,59.88,31H201.5a17.41,17.41,0,0,0-2.2,9.75V209.43A15.59,15.59,0,0,1,183.73,225h-2.67a15.82,15.82,0,1,1,0-31.63,9.8,9.8,0,0,1,0,19.59,9.68,9.68,0,0,1-3.81-.77,3.51,3.51,0,1,0-2.73,6.46,16.81,16.81,0,1,0,6.54-32.29H40.8a22.82,22.82,0,0,0,0,45.64H183.73a22.6,22.6,0,0,0,22.58-22.57V40.58c0-.12,0-.25,0-.37s-.33-4.11,2-6.7c1.46-1.63,3.84-2.46,7-2.49a15.8,15.8,0,0,1,9.49,28.35,3.51,3.51,0,0,0,4.26,5.57A22.81,22.81,0,0,0,215.6,24ZM25,209.18A15.82,15.82,0,0,1,40.8,193.37H164.62a22.77,22.77,0,0,0,0,31.63H40.8A15.83,15.83,0,0,1,25,209.18Z"/><path class="cls-1" d="M154.13,98.22a3.51,3.51,0,0,0,0-7H83.61a3.51,3.51,0,0,0,0,7Z"/><path class="cls-1" d="M161.13,103.58H76.6a3.51,3.51,0,0,0,0,7h84.53a3.51,3.51,0,1,0,0-7Z"/><path class="cls-1" d="M164.64,119.46a3.5,3.5,0,0,0-3.51-3.5H76.6a3.5,3.5,0,0,0,0,7h84.53A3.5,3.5,0,0,0,164.64,119.46Z"/><path class="cls-1" d="M147.12,135.34a3.51,3.51,0,0,0,0-7H90.62a3.51,3.51,0,1,0,0,7Z"/><path class="cls-1" d="M167.44,53.13A3.51,3.51,0,0,0,164.2,51H131.79s-.09,0-.14,0a18.88,18.88,0,0,0-25.54,0H74.41a3.5,3.5,0,0,0-2.48,6L80,65l-8.14,8.53a3.51,3.51,0,0,0,2.53,5.93h32.25a18.9,18.9,0,0,0,24.55-.12,3.5,3.5,0,0,0,.58.12H164.2a3.51,3.51,0,0,0,2.53-5.93L158.59,65l8.09-8.09A3.5,3.5,0,0,0,167.44,53.13Zm-80,9.37L82.87,58h18.38a18.84,18.84,0,0,0,.19,14.51H82.6l4.86-5.08A3.51,3.51,0,0,0,87.4,62.5ZM118.87,77a12,12,0,1,1,12-12A12,12,0,0,1,118.87,77Zm17.43-4.47A18.84,18.84,0,0,0,136.49,58h19.25l-4.53,4.53a3.5,3.5,0,0,0-.05,4.9L156,72.48Z"/><path class="cls-1" d="M161.13,154.5a3.49,3.49,0,0,0-3.5-3.5H80.11a3.5,3.5,0,1,0,0,7h77.52A3.49,3.49,0,0,0,161.13,154.5Z"/><path class="cls-1" d="M90.62,163.37a3.51,3.51,0,1,0,0,7h56.5a3.51,3.51,0,0,0,0-7Z"/></svg>