<svg id="Layer_1" data-name="Layer 1" xmlns="http://www.w3.org/2000/svg" viewBox="0 0 256 256"><defs><style>.cls-1{fill:#787878;}</style></defs><title>minimal fairy tale 4</title><path class="cls-1" d="M245.86,192.71c-3.59-10-42.62-31.54-54.22-37.76-.45-.29-10.85-7-27.31-3-7-4.75-40.5-28.45-59-55-15.52-22.23-30.38-34.57-31-35.07-4.63-3.85-28.1-22.78-38.93-21-8.59,0-13.95,2.51-16.09,7.42C14,60.35,32.92,81,37.23,85.45c-7.59-2.23-17.7-3.68-23.67,1.73a13.06,13.06,0,0,0-2.26,2.74l-.07,0a3.23,3.23,0,0,0-.2.42,11.12,11.12,0,0,0-1.52,6.67,16.67,16.67,0,0,0,2.57,7.09,0,0,0,0,0,0,0C27.68,131,26.29,195,26.27,195.62a3.52,3.52,0,0,0,3.51,3.59H40.66a3.52,3.52,0,0,0,3.51-3.65c-1.4-34.58,1.63-51.79,3.7-59.25a133.36,133.36,0,0,1,24.07,39.86c.69,3.89,6.61,32.7,31,34.64,3,.23,6.49.56,10.45.92,15.06,1.39,37.58,3.47,62.07,3.47,18,0,37.11-1.13,55.05-4.48,1.15-.28,11.27-2.89,14.81-9.46A10.28,10.28,0,0,0,245.86,192.71ZM99.54,101c16.74,24,44.26,45,56.31,53.63l-3.14,1.13c-10.89,3.94-22.11,8-38.55,3.86-5.4-12.22-14.9-25-23.33-34.88.84-3.38,2.35-10.7,1.72-17.61C91.31,93.67,82.26,80.44,64.06,65.46,50.29,54.12,40.85,52.64,36,53A6.91,6.91,0,0,1,36.12,48a.26.26,0,0,1,.07-.1h.3a3.12,3.12,0,0,0,.84-.16c5.74.13,20.92,9.92,32.5,19.55C70,67.43,84.61,79.61,99.54,101ZM85,118.12c-4.94-5.44-8.86-9.34-10.33-10.78-2.2-6.08-9.31-20.84-31.24-42a41,41,0,0,1-4-5.18c4,.63,10.73,3,20.11,10.73,16.65,13.71,24.9,25.43,26,36.89A42.71,42.71,0,0,1,85,118.12Zm19.79,38.4C89.27,149.74,81.61,132.41,78.15,121,86.12,129.68,97.57,143.21,104.82,156.52ZM42.74,94.91A22.26,22.26,0,0,1,43,109.5L19.29,91.65C24.93,88.38,37.2,92.49,42.74,94.91ZM37,192.2h-3.7c.07-11.66-.4-48.63-8.5-75.43,1.61,1.15,3.08,2.11,4.23,2.81a80,80,0,0,1,13.31,10.89C40.08,136.34,35.74,152.89,37,192.2Zm202.11,5.73c-1.56,2.9-7.14,5.21-10.11,5.94-41.19,7.69-89.21,3.27-115,.88-4-.36-7.54-.69-10.54-.93C83.41,202.22,78.84,175,78.8,174.69a4.38,4.38,0,0,0-.19-.71c-11.94-31-32.17-51.91-45.87-60.36-7.9-4.87-13.6-10.38-15.52-14.76L42.28,117.7a3.5,3.5,0,0,0,2.1.71,3.92,3.92,0,0,0,.59,0,3.48,3.48,0,0,0,2.32-1.51c.37-.54,7.3-11.23,1.54-25.54a4,4,0,0,0-.25-.56,40.74,40.74,0,0,0-5.82-9.64c-8.63-8.9-19.63-24.08-17.06-30a4.77,4.77,0,0,1,3-2.32c-1.05,9.38,8.42,19.95,9.76,21.4,26.82,25.91,30.25,41.35,30.26,41.35.24,1.68,6.15,41.37,35.38,52.23,2.22.82,4.33,1.48,6.4,2.06a2.85,2.85,0,0,0,.39.11c19.34,5.32,32.49.61,44.22-3.63,3.28-1.19,6.37-2.31,9.52-3.19,14.16-3.94,22.83,1.44,23.43,1.82,23.21,12.47,49.39,29.06,51.22,34.12A3.3,3.3,0,0,1,239.14,197.93Z"/><path class="cls-1" d="M167.15,111.65a3.5,3.5,0,1,0-3.5,6.07l7,4-7,4a3.5,3.5,0,0,0,1.75,6.53,3.55,3.55,0,0,0,1.75-.46l7-4v13.26a3.51,3.51,0,1,0,7,0V127.82l7,4a3.55,3.55,0,0,0,1.75.46,3.5,3.5,0,0,0,1.75-6.53l-7-4,7-4a3.5,3.5,0,1,0-3.5-6.07l-7,4V102.42a3.51,3.51,0,0,0-7,0v13.26Z"/><path class="cls-1" d="M184.09,165.48c-.74-.3-1.46-.58-2.16-.83a3.5,3.5,0,1,0-2.41,6.58c.63.22,1.27.48,1.94.75a3.59,3.59,0,0,0,1.32.25,3.5,3.5,0,0,0,1.31-6.75Z"/><path class="cls-1" d="M195.14,170.74a3.5,3.5,0,0,0-3.27,6.2c14.73,7.78,31.29,19,31.45,19.14a3.51,3.51,0,0,0,4-5.8C227.1,190.17,210.23,178.71,195.14,170.74Z"/><path class="cls-1" d="M141.13,118.32a4.52,4.52,0,1,0-4.51-4.52A4.52,4.52,0,0,0,141.13,118.32Z"/><path class="cls-1" d="M200.37,146.37a4.52,4.52,0,1,0,4.51-4.52A4.51,4.51,0,0,0,200.37,146.37Z"/><path class="cls-1" d="M200.37,109a4.52,4.52,0,1,0-4.52-4.52A4.51,4.51,0,0,0,200.37,109Z"/><path class="cls-1" d="M165.4,104.46a4.52,4.52,0,1,0-4.52-4.51A4.52,4.52,0,0,0,165.4,104.46Z"/><path class="cls-1" d="M150.83,130.14a2.26,2.26,0,1,0-2.26-2.26A2.26,2.26,0,0,0,150.83,130.14Z"/><path class="cls-1" d="M203.26,116.06a2.26,2.26,0,1,0,2.26,2.26A2.27,2.27,0,0,0,203.26,116.06Z"/><path class="cls-1" d="M216.82,132.4a2.26,2.26,0,1,0-2.26-2.26A2.26,2.26,0,0,0,216.82,132.4Z"/></svg>