<svg id="Layer_1" data-name="Layer 1" xmlns="http://www.w3.org/2000/svg" viewBox="0 0 256 256"><defs><style>.cls-1{fill:#787878;}</style></defs><title>minimal fairy tale 9</title><path class="cls-1" d="M160.18,59.58a3.47,3.47,0,0,0,.65-3.33,3.51,3.51,0,0,0-2.48-2.32l-17.71-4.41L131,34A3.64,3.64,0,0,0,125,34l-9.67,15.48L97.65,53.93a3.51,3.51,0,0,0-1.83,5.66l11.73,14-1.28,18.21a3.5,3.5,0,0,0,4.81,3.49l13.42-5.42V246.35a3.5,3.5,0,1,0,7,0V89.84l13.42,5.42a3.5,3.5,0,0,0,4.81-3.49l-1.28-18.21Zm-18,10.56a3.51,3.51,0,0,0-.82,2.5l1,14-13-5.27a3.56,3.56,0,0,0-2.62,0l-13,5.27,1-14a3.54,3.54,0,0,0-.81-2.5l-9-10.77L118.43,56a3.51,3.51,0,0,0,2.12-1.55L128,42.51l7.45,11.92A3.51,3.51,0,0,0,137.57,56l13.64,3.4Z"/><path class="cls-1" d="M128,25.13a3.5,3.5,0,0,0,3.5-3.51v-12a3.5,3.5,0,0,0-7,0v12A3.5,3.5,0,0,0,128,25.13Z"/><path class="cls-1" d="M172.3,56a3.26,3.26,0,0,0,1-.15l11.47-3.43a3.51,3.51,0,0,0-2-6.72L171.3,49.15a3.5,3.5,0,0,0,1,6.86Z"/><path class="cls-1" d="M156.34,104.14a3.51,3.51,0,1,0-5.89,3.81l6.5,10a3.5,3.5,0,0,0,5.89-3.8Z"/><path class="cls-1" d="M163,19.89a3.51,3.51,0,0,0,2.89-1.51l.52-.75a3.51,3.51,0,0,0-5.77-4l-.51.75a3.49,3.49,0,0,0,.88,4.87A3.45,3.45,0,0,0,163,19.89Z"/><path class="cls-1" d="M148.68,40.55a3.49,3.49,0,0,0,2.88-1.5l9.23-13.33a3.5,3.5,0,1,0-5.76-4L145.8,35.06a3.5,3.5,0,0,0,2.88,5.49Z"/><path class="cls-1" d="M189.41,83l-.83-.26a3.5,3.5,0,1,0-2.09,6.69l.83.26A3.5,3.5,0,0,0,189.41,83Z"/><path class="cls-1" d="M179.61,79.89l-15.06-4.7a3.5,3.5,0,1,0-2.09,6.69l15.06,4.7a3.46,3.46,0,0,0,1,.16,3.5,3.5,0,0,0,1.05-6.85Z"/><path class="cls-1" d="M71.23,52.43l11.46,3.43a3.26,3.26,0,0,0,1,.15,3.5,3.5,0,0,0,1-6.86L73.24,45.71a3.51,3.51,0,1,0-2,6.72Z"/><path class="cls-1" d="M104.51,103.1a3.5,3.5,0,0,0-4.84,1l-6.5,10.06a3.5,3.5,0,1,0,5.88,3.8l6.5-10A3.51,3.51,0,0,0,104.51,103.1Z"/><path class="cls-1" d="M90.13,18.38A3.51,3.51,0,0,0,93,19.89a3.45,3.45,0,0,0,2-.63,3.49,3.49,0,0,0,.88-4.87l-.51-.75a3.51,3.51,0,0,0-5.77,4Z"/><path class="cls-1" d="M95.21,25.72l9.23,13.33a3.5,3.5,0,0,0,5.76-4L101,21.73a3.5,3.5,0,1,0-5.76,4Z"/><path class="cls-1" d="M67.42,82.69l-.83.26a3.5,3.5,0,1,0,2.09,6.69l.83-.26a3.5,3.5,0,1,0-2.09-6.69Z"/><path class="cls-1" d="M95.84,77.49a3.51,3.51,0,0,0-4.39-2.3l-15.06,4.7a3.5,3.5,0,0,0,1,6.85,3.46,3.46,0,0,0,1-.16l15.06-4.7A3.5,3.5,0,0,0,95.84,77.49Z"/></svg>