<?xml version="1.0" encoding="utf-8"?>
<!-- Generator: Adobe Illustrator 18.0.0, SVG Export Plug-In . SVG Version: 6.00 Build 0)  -->
<!DOCTYPE svg PUBLIC "-//W3C//DTD SVG 1.1//EN" "http://www.w3.org/Graphics/SVG/1.1/DTD/svg11.dtd">
<svg version="1.1" id="Layer_1" xmlns="http://www.w3.org/2000/svg" xmlns:xlink="http://www.w3.org/1999/xlink" x="0px" y="0px"
	 viewBox="0 0 393.1 130" enable-background="new 0 0 393.1 130" xml:space="preserve">
<g>
	<g>
		<path fill="#5C565A" d="M28.2,51.9c0-0.2,0-0.3,0-0.5c0-0.2,0-0.4,0-0.6c0-0.9-0.1-1.7-0.4-2.6c-0.3-0.9-0.7-1.7-1.2-2.4
			c-0.5-0.7-1.1-1.3-1.7-1.8c-0.7-0.5-1.4-0.7-2.1-0.7c-0.6,0-1.2,0.3-1.7,0.8c-0.6,0.6-0.8,1.2-0.8,2c0,0.8,0.4,1.8,1.2,3.2
			c0.8,1.3,1.7,2.7,2.7,4.2c1,1.5,2,2.8,3,4.1c1,1.3,1.7,2.2,2.2,2.8c0.7,0.9,1.4,1.9,2.1,2.8c0.7,0.9,1.4,1.9,2.1,2.9
			c0.4,0.6,0.7,1.2,1,1.8s0.4,1.3,0.4,2c0,0.9-0.2,1.7-0.6,2.5c-0.4,0.7-0.9,1.4-1.4,2c-0.6,0.6-1.2,1.2-1.9,1.7
			c-0.7,0.5-1.2,0.9-1.8,1.4c-0.8,0.6-1.6,1.1-2.4,1.7c-0.8,0.6-1.7,1-2.6,1.5c-0.9,0.4-1.8,0.8-2.7,1c-0.9,0.3-1.8,0.4-2.7,0.4
			c-0.6,0-1.2-0.1-1.8-0.2c-0.6-0.1-1.1-0.4-1.7-0.7l-0.4-14.9c0.1,1.2,0.4,2.3,0.8,3.5c0.4,1.2,0.9,2.2,1.6,3.2
			c0.6,1,1.3,1.9,2.1,2.8c0.8,0.8,1.6,1.5,2.4,2.1c0.5,0.3,1,0.6,1.5,0.8c0.5,0.2,1,0.4,1.5,0.4c0.7,0,1.3-0.3,1.8-0.9
			c0.5-0.6,0.7-1.4,0.7-2.3c0-1.4-0.5-3-1.5-4.7c-1-1.7-2.1-3.5-3.5-5.2s-2.7-3.4-4.1-4.9c-1.4-1.6-2.4-2.9-3.2-3.9
			c-0.5-0.7-0.9-1.5-1.3-2.4c-0.4-0.9-0.6-1.8-0.6-2.8c0-0.9,0.2-1.7,0.5-2.5c0.3-0.7,0.8-1.4,1.3-2c0.5-0.6,1.1-1.2,1.8-1.7
			c0.6-0.5,1.2-0.9,1.8-1.3c1.6-1.1,3.4-1.9,5.4-2.3c2-0.4,3.9-0.6,5.8-0.6h0.9L28.2,51.9z"/>
		<path fill="#5C565A" d="M44.8,38.9c0,2.6-0.1,5.2-0.1,7.8c0,2.6-0.1,5.2-0.1,7.9h0.3c1.1,0,2.3,0,3.4,0c1.2,0,2.3-0.2,3.4-0.5
			L51,55.9c-1.1-0.1-2.2-0.2-3.3-0.2c-0.6,0-1.1,0-1.6,0c-0.5,0-1,0.1-1.6,0.1c0,2.3,0,4.6,0,6.8c0,2.3,0,4.5,0,6.8v4.3
			c0,0.5,0,1,0,1.7c0,0.6,0,1.2,0.1,1.8s0.3,1.1,0.5,1.5c0.3,0.4,0.7,0.6,1.2,0.6c0.5,0,0.9-0.1,1.4-0.4c0.5-0.2,0.9-0.5,1.3-0.9
			l0.2,0.6c-0.6,0.4-1.2,0.8-1.9,1c-0.7,0.2-1.4,0.4-2,0.4c-0.5,0-0.9-0.1-1.3-0.2c-0.6-0.2-1.3-0.4-1.9-0.7
			c-0.6-0.3-1.2-0.7-1.7-1.2c-0.5-0.5-0.9-1-1.2-1.7C39,75.8,38.9,75,38.9,74c0-1.1,0-2.2,0-3.3c0-1.1,0-2.2,0-3.3
			c0-1.9,0-3.8,0-5.8c0-2,0-3.9-0.1-5.8l-3.5,0.1l-0.2-1.3c0.3,0,2.5,0.1,2.8,0.1c0.3,0,0.5,0,0.8,0h0.1l0.1-4
			c0.6-0.7,1.2-1.5,1.7-2.4c0.6-0.9,1.1-1.9,1.6-3c0.5-1,0.9-2.1,1.4-3.2C44.1,41,44.5,39.9,44.8,38.9z"/>
		<path fill="#5C565A" d="M71.8,67.7c0,1.9-0.3,3.6-1,5.1c-0.7,1.5-1.5,2.9-2.6,4c-1.1,1.1-2.3,2-3.6,2.6c-1.3,0.6-2.7,0.9-4.1,0.9
			c-1.2,0-2.5-0.3-3.6-0.8c-1.2-0.5-2.3-1.2-3.2-2.2c-0.9-0.9-1.7-2.1-2.2-3.5c-0.6-1.4-0.8-2.9-0.8-4.5c0-1.8,0.3-3.5,1-5.1
			c0.7-1.6,1.5-2.9,2.6-4c1.1-1.1,2.3-2,3.6-2.6c1.3-0.6,2.7-0.9,4.1-0.9c1.3,0,2.5,0.3,3.7,0.8c1.2,0.5,2.2,1.2,3.1,2.2
			c0.9,0.9,1.7,2.1,2.2,3.5C71.5,64.6,71.8,66.1,71.8,67.7z M59.3,58.5c-1.4,0-2.4,0.6-3,1.8s-1,2.6-1,4.1c0,1.3,0.2,2.7,0.6,4.4
			c0.4,1.6,1,3.2,1.8,4.6c0.8,1.5,1.7,2.7,2.7,3.6c1,1,2.1,1.5,3.3,1.5c0.6,0,1.2-0.2,1.6-0.5c0.4-0.3,0.8-0.7,1-1.2
			c0.3-0.5,0.4-1.1,0.5-1.7s0.2-1.3,0.2-2c0-1.2-0.2-2.7-0.5-4.4c-0.4-1.7-0.9-3.3-1.6-4.8c-0.7-1.5-1.5-2.8-2.5-3.8
			C61.5,59.1,60.5,58.5,59.3,58.5z"/>
		<path fill="#5C565A" d="M80.4,54.1l-0.1,2.6c0.3-0.3,0.8-0.7,1.3-1.2c0.5-0.4,1-0.8,1.6-1.2c0.5-0.4,1.1-0.7,1.6-1
			c0.6-0.3,1-0.4,1.5-0.4c0.1,0,0.2,0,0.2,0c0.1,0,0.1,0,0.2,0L86,60.6c-0.1-1.1-0.4-2.1-0.8-3c-0.4-0.9-1.1-1.4-2-1.4
			c-0.5,0-1,0.1-1.4,0.3c-0.5,0.2-0.9,0.5-1.3,0.8c-0.3,3.3-0.4,6.7-0.4,10c0,0.4,0,0.9,0,1.5c0,0.6,0,1.2,0,1.8
			c0,0.6,0,1.2,0.1,1.8c0,0.6,0.1,1,0.1,1.4c0.1,0.4,0.3,0.8,0.6,1c0.3,0.3,0.6,0.4,0.9,0.6l-8.5,0.9c0.3-0.2,0.6-0.5,0.9-0.9
			c0.3-0.4,0.5-0.8,0.6-1.3c0-0.5,0.1-1,0.1-1.7c0-0.7,0.1-1.4,0.1-2.1c0-0.7,0-1.4,0-2.1c0-0.7,0-1.3,0-1.8c0-1.2,0-2.4,0-3.6
			c0-1.2-0.1-2.4-0.1-3.6c0-0.6,0-1.1,0-1.7c0-0.6,0-1.1-0.1-1.6c0-0.5-0.3-0.8-0.6-1.1c-0.4-0.3-0.7-0.5-1.1-0.5L80.4,54.1z"/>
		<path fill="#5C565A" d="M96.4,55.2c-0.3,0.2-0.6,0.4-1,0.8c-0.4,0.4-0.6,0.8-0.6,1.2c0,0,0.1,0.3,0.2,0.8c0.1,0.5,0.3,1.2,0.5,1.9
			s0.4,1.6,0.6,2.5s0.5,1.7,0.7,2.5c0.2,0.8,0.4,1.5,0.5,2.1c0.1,0.6,0.2,1,0.3,1.2c0.1-0.2,0.2-0.7,0.5-1.3
			c0.2-0.7,0.5-1.5,0.8-2.4s0.7-1.8,1-2.8c0.3-1,0.7-1.9,1-2.8c0.3-0.9,0.5-1.6,0.7-2.2c0.2-0.6,0.3-1,0.3-1.1c0-0.3-0.1-0.7-0.3-1
			c-0.2-0.3-0.4-0.5-0.7-0.6l6.2-0.3c-0.5,0.2-1,0.5-1.6,1c-0.6,0.4-1,0.9-1.3,1.5c-0.3,0.7-0.7,1.4-1,2c-0.3,0.7-0.7,1.4-1,2.1
			c-1.7,3.8-3.3,7.6-4.7,11.5c-1.4,3.9-2.9,7.8-4.5,11.6c-0.5,1.2-1.1,2.5-1.9,3.9c-0.8,1.4-1.7,2.8-2.8,4c-1,1.2-2.1,2.3-3.3,3.1
			c-1.2,0.8-2.3,1.2-3.5,1.2c-0.3,0-0.7-0.1-1-0.2l-2.5-6.3c0.9,0.9,2,1.3,3.3,1.3c1,0,2-0.3,3.1-0.8c1-0.5,2-1.2,3-2S89.3,86,90,85
			c0.8-1,1.4-2,2-3.1c0.5-0.9,0.9-1.8,1.2-2.8c0.3-1,0.6-2,0.8-3l-5.2-18.9c-0.1-0.5-0.4-0.9-0.9-1.2c-0.5-0.3-0.9-0.6-1.2-0.7
			L96.4,55.2z"/>
		<path fill="#5C565A" d="M128.4,63.5c0,0.8-0.1,1.6-0.3,2.3c-0.2,0.7-0.5,1.5-0.8,2.1c-0.6,1.1-1.2,2.1-2.1,2.8
			c-0.8,0.8-1.7,1.4-2.7,2c-1,0.5-2,0.9-3,1.1c-1,0.2-2.1,0.4-3.1,0.4c-0.3,0-0.6,0-0.9,0c-0.3,0-0.5,0-0.8-0.1v1.9l-7.3,0.1
			c0.5-0.4,0.8-0.9,1.1-1.5c0.2-0.6,0.4-1.3,0.5-2c0.1-0.5,0.1-0.9,0.1-1.3c0-0.4,0-0.9,0.1-1.3c0.1-1.5,0.1-3,0.2-4.5
			c0-1.5,0.1-3,0.1-4.5c0-2,0-3.9-0.1-5.9c-0.1-1.9-0.1-3.9-0.2-5.9c0-0.9-0.1-1.8-0.1-2.9c0-1.1-0.1-2.1-0.2-2.9
			c-0.1-0.9-0.4-1.5-1-2c-0.6-0.5-1.2-0.8-1.8-1l9.6-0.3l-0.4,15c0.7-0.6,1.6-1.1,2.6-1.5c1-0.4,1.9-0.6,2.8-0.6
			c0.9,0,1.8,0.2,2.6,0.6c0.8,0.4,1.5,1,2.1,1.7c0.6,0.7,1.2,1.5,1.6,2.5c0.4,0.9,0.8,1.9,1.2,2.9C128.3,61.7,128.4,62.5,128.4,63.5
			z M117.6,56c-0.4,0-0.8,0.1-1.3,0.3c-0.5,0.2-0.9,0.4-1.2,0.7l-0.4,16c0.2,0.1,0.4,0.1,0.6,0.2c0.2,0,0.4,0.1,0.6,0.1
			c0.9,0,1.8-0.2,2.7-0.7c0.8-0.5,1.6-1.2,2.2-2c0.6-0.8,1.1-1.8,1.5-2.8c0.4-1.1,0.5-2.2,0.5-3.3c0-0.9-0.1-1.8-0.4-2.8
			s-0.6-1.9-1.1-2.7c-0.4-0.8-1-1.5-1.6-2C119.1,56.2,118.4,56,117.6,56z"/>
		<path fill="#5C565A" d="M150.2,67.7c0,1.9-0.3,3.6-1,5.1c-0.7,1.5-1.5,2.9-2.6,4c-1.1,1.1-2.3,2-3.6,2.6c-1.3,0.6-2.7,0.9-4.1,0.9
			c-1.2,0-2.5-0.3-3.6-0.8c-1.2-0.5-2.3-1.2-3.2-2.2c-0.9-0.9-1.7-2.1-2.2-3.5c-0.6-1.4-0.8-2.9-0.8-4.5c0-1.8,0.3-3.5,1-5.1
			c0.7-1.6,1.5-2.9,2.6-4c1.1-1.1,2.3-2,3.6-2.6c1.3-0.6,2.7-0.9,4.1-0.9c1.3,0,2.5,0.3,3.7,0.8c1.2,0.5,2.2,1.2,3.1,2.2
			c0.9,0.9,1.7,2.1,2.2,3.5C149.9,64.6,150.2,66.1,150.2,67.7z M137.7,58.5c-1.4,0-2.4,0.6-3,1.8s-1,2.6-1,4.1
			c0,1.3,0.2,2.7,0.6,4.4c0.4,1.6,1,3.2,1.8,4.6c0.8,1.5,1.7,2.7,2.7,3.6c1,1,2.1,1.5,3.3,1.5c0.6,0,1.2-0.2,1.6-0.5
			c0.4-0.3,0.8-0.7,1-1.2c0.3-0.5,0.4-1.1,0.5-1.7s0.2-1.3,0.2-2c0-1.2-0.2-2.7-0.5-4.4c-0.4-1.7-0.9-3.3-1.6-4.8
			c-0.7-1.5-1.5-2.8-2.5-3.8C139.9,59.1,138.8,58.5,137.7,58.5z"/>
		<path fill="#5C565A" d="M172.7,67.7c0,1.9-0.3,3.6-1,5.1c-0.7,1.5-1.5,2.9-2.6,4c-1.1,1.1-2.3,2-3.6,2.6c-1.3,0.6-2.7,0.9-4.1,0.9
			c-1.2,0-2.5-0.3-3.6-0.8c-1.2-0.5-2.3-1.2-3.2-2.2c-0.9-0.9-1.7-2.1-2.2-3.5c-0.6-1.4-0.8-2.9-0.8-4.5c0-1.8,0.3-3.5,1-5.1
			c0.7-1.6,1.5-2.9,2.6-4c1.1-1.1,2.3-2,3.6-2.6c1.3-0.6,2.7-0.9,4.1-0.9c1.3,0,2.5,0.3,3.7,0.8c1.2,0.5,2.2,1.2,3.1,2.2
			c0.9,0.9,1.7,2.1,2.2,3.5C172.4,64.6,172.7,66.1,172.7,67.7z M160.2,58.5c-1.4,0-2.4,0.6-3,1.8s-1,2.6-1,4.1
			c0,1.3,0.2,2.7,0.6,4.4c0.4,1.6,1,3.2,1.8,4.6c0.8,1.5,1.7,2.7,2.7,3.6c1,1,2.1,1.5,3.3,1.5c0.6,0,1.2-0.2,1.6-0.5
			c0.4-0.3,0.8-0.7,1-1.2c0.3-0.5,0.4-1.1,0.5-1.7s0.2-1.3,0.2-2c0-1.2-0.2-2.7-0.5-4.4c-0.4-1.7-0.9-3.3-1.6-4.8
			c-0.7-1.5-1.5-2.8-2.5-3.8C162.4,59.1,161.4,58.5,160.2,58.5z"/>
		<path fill="#5C565A" d="M182.8,43.5c-0.3,0.2-0.7,0.5-1,0.8c-0.3,0.3-0.6,0.7-0.7,1.2c0,0.1,0,0.6-0.1,1.3c0,0.7-0.1,1.6-0.1,2.7
			c0,1-0.1,2.2-0.1,3.4c0,1.2-0.1,2.4-0.1,3.5c0,1.1,0,2-0.1,2.8c0,0.8,0,1.3,0,1.5c0.2-0.3,0.6-0.8,1.2-1.5
			c0.6-0.7,1.2-1.4,1.9-2.2c0.6-0.8,1.2-1.5,1.7-2.2c0.5-0.7,0.8-1.2,0.8-1.5c0-0.2-0.1-0.4-0.4-0.6c-0.2-0.2-0.4-0.3-0.5-0.4
			l6.7-0.4c-0.5,0.2-1,0.4-1.5,0.7c-0.5,0.3-0.9,0.6-1.3,0.9c-0.4,0.4-0.8,0.8-1.2,1.2c-0.4,0.4-0.8,0.9-1.2,1.3
			c-0.9,0.9-1.7,1.8-2.6,2.7c-0.9,0.9-1.7,1.8-2.6,2.7c0.7,1.2,1.5,2.6,2.5,4.2c1,1.6,2,3.2,3.1,4.8s2.2,3.1,3.3,4.5
			c1.1,1.4,2.1,2.5,3,3.3c0.4,0.3,0.9,0.7,1.5,0.9c0.6,0.3,1.1,0.5,1.6,0.7l-11.3,0.1c0.2-0.1,0.5-0.4,0.9-0.7
			c0.4-0.3,0.6-0.7,0.6-1c0-0.5-0.3-1.5-0.9-2.8c-0.6-1.4-1.2-2.8-2-4.4c-0.7-1.6-1.4-3-2.1-4.5c-0.7-1.4-1.2-2.5-1.5-3.1
			c0,0.9-0.1,1.9-0.1,2.8c0,0.9,0,1.8,0,2.8c0,0.3,0,0.7,0,1.5c0,0.7,0,1.4,0,2.2s0,1.5,0,2.1c0,0.7,0.1,1.1,0.1,1.2
			c0.1,0.3,0.2,0.6,0.4,0.8c0.2,0.2,0.4,0.4,0.6,0.6l-8.1,0.1c0.4-0.1,0.8-0.4,1.1-0.7c0.3-0.3,0.5-0.8,0.6-1.3
			c0.1-0.6,0.1-1.2,0.1-1.9c0-0.7-0.1-1.3-0.1-1.9c0-1.3,0.1-2.5,0.1-3.8c0-1.3,0-2.6,0-3.8v-4.7c0-1.9,0-3.8,0-5.7
			c0-1.9,0-3.8-0.1-5.8c0,0,0-0.2,0-0.4s0-0.5,0-0.8c0-0.3,0-0.6,0-0.8c0-0.3,0-0.4,0-0.4c-0.1-0.5-0.3-0.9-0.6-1.2
			c-0.3-0.3-0.6-0.6-1-0.8L182.8,43.5z"/>
	</g>
	<g>
		<path fill="#5C565A" d="M232.2,69.2c-0.1,0.5-0.3,1-0.7,1.6c-0.4,0.6-0.7,1.1-1,1.4c-1.6,2.1-3.6,3.8-5.8,5
			c-2.2,1.2-4.5,1.8-6.9,1.8c-2.3,0-4.4-0.5-6.2-1.5c-1.8-1-3.4-2.4-4.6-4.1c-1.2-1.7-2.2-3.8-2.8-6.2c-0.6-2.4-1-5-1-7.8
			c0-2.2,0.3-4.3,0.8-6.2c0.6-1.9,1.3-3.6,2.3-5.2c1-1.6,2.1-3,3.5-4.2c1.4-1.2,2.8-2.2,4.4-3c0.9-0.5,1.8-0.8,2.7-0.9
			c0.9-0.1,1.9-0.2,2.8-0.2c1.2,0,2.5,0.1,3.7,0.3c1.2,0.2,2.5,0.5,3.6,0.9L225,51.8v-0.6c0-1.1-0.1-2.3-0.3-3.4
			c-0.2-1.2-0.5-2.2-0.9-3.2c-0.4-1-1-1.7-1.7-2.4c-0.7-0.6-1.6-0.9-2.7-0.9c-1.2,0-2.4,0.3-3.4,0.9c-1,0.6-1.9,1.5-2.7,2.5
			c-0.8,1-1.4,2.2-1.8,3.6c-0.4,1.3-0.7,2.7-0.7,4.2v1.2c0,2,0.1,4,0.4,6c0.2,2,0.6,4,1.2,5.8c0.6,1.9,1.4,3.6,2.4,5.1
			c1,1.5,2.3,2.8,3.8,3.7c0.9,0.5,1.7,0.9,2.7,1.2c0.9,0.3,1.9,0.4,2.9,0.4c0.3,0,0.4,0,0.6-0.1c1.2-0.2,2.3-0.7,3.3-1.5
			c0.9-0.8,1.8-1.9,2.6-3.1c0.2-0.3,0.4-0.7,0.6-1.1c0.2-0.4,0.4-0.7,0.5-1.1L232.2,69.2z"/>
		<path fill="#5C565A" d="M232.2,47.7l8.3-0.2l-0.3,12c0.9-0.5,2.1-1,3.4-1.5c1.3-0.5,2.5-0.7,3.5-0.7c0.8,0,1.4,0.2,1.8,0.5
			c0.4,0.3,0.7,0.7,0.8,1.3c0.1,0.5,0.2,1.1,0.2,1.8c0,0.7,0,1.4,0,2.1v4.9c0,1.2,0,2.5,0,4c0,1.5,0.1,2.8,0.2,3.9
			c0.1,0.7,0.4,1.3,0.9,1.9c0.5,0.5,1,0.9,1.5,1.2l-8.3,0.4c0-1.2-0.1-2.4-0.1-3.6c0-1.2,0-2.4,0-3.6c0-1.9,0-3.7,0.1-5.5
			c0.1-1.8,0.1-3.7,0.2-5.5v-0.1c0-0.6-0.3-1-0.8-1c-0.5,0-1,0.2-1.7,0.5c-0.7,0.3-1.3,0.7-1.7,1c-0.1,2.8-0.1,5.6-0.2,8.4
			c0,2.8-0.1,5.5-0.1,8.4c0,0.4,0.2,0.8,0.5,1.3c0.3,0.5,0.6,0.9,0.8,1.1l-8.2,0.3c0.3-0.2,0.5-0.5,0.7-0.9c0.2-0.4,0.4-0.8,0.5-1.2
			c0.1-0.7,0.1-1.5,0.2-2.3c0-0.8,0.1-1.5,0.1-2.3c0.1-1.9,0.1-3.8,0.2-5.8c0-1.9,0.1-3.8,0.1-5.8c0-1.5,0-2.9,0-4.3
			c0-1.4,0-2.8-0.1-4.3c0-0.6,0-1.3,0-2.1c0-0.8,0-1.5-0.1-2.1c-0.1-0.6-0.4-1-1-1.4S232.6,47.9,232.2,47.7z"/>
		<path fill="#5C565A" d="M257.9,54.4c0.7-0.2,1.4-0.4,2.1-0.5c0.7-0.1,1.4-0.2,2.1-0.2c0.7,0,1.3-0.1,1.8-0.1c0.4,0,1.1,0,2,0.1
			c0.9,0.1,1.8,0.2,2.8,0.4c0.9,0.2,1.7,0.6,2.5,1c0.7,0.5,1.1,1.1,1.2,1.9v0.5c0,2.2-0.2,4.3-0.4,6.5c-0.3,2.2-0.4,4.3-0.4,6.5
			c0,0.3,0,0.7,0,1c0,0.3,0,0.7,0.1,1c0.1,1,0.6,1.8,1.4,2.3c0.8,0.5,1.5,0.8,2.3,1l-9.9,0.3c0.1-3,0.3-6,0.6-9c0.3-3,0.4-6,0.5-8.9
			c-0.6,0.5-1.3,1.2-2.1,2c-0.7,0.8-1.4,1.7-2.1,2.6c-0.6,0.9-1.2,1.9-1.6,3c-0.4,1-0.6,2.1-0.6,3c0,1.2,0.3,2.2,0.9,3.1
			c0.6,0.9,1.4,1.3,2.4,1.3c0.5,0,1-0.1,1.5-0.3c-0.9,0.7-2,1.3-3.4,1.8c-1.4,0.5-2.6,0.7-3.7,0.7c-1.3,0-2.4-0.4-3.5-1.2
			c-1-0.8-1.6-2.1-1.6-4c0-0.8,0.2-1.5,0.6-2.1c0.4-0.6,0.9-1.1,1.4-1.6c0.6-0.4,1.1-0.8,1.8-1.2c0.6-0.3,1.2-0.6,1.6-1
			c1.5-1,2.9-2.1,4.3-3.3s2.7-2.4,4.1-3.7c0-1-0.2-1.7-0.4-2.3c-0.3-0.5-0.8-0.8-1.7-0.8c-0.9,0-1.8,0.2-2.6,0.6
			c-0.8,0.4-1.6,0.9-2.3,1.6c-0.7,0.7-1.3,1.5-1.9,2.4c-0.5,0.9-1,1.9-1.2,2.9l0.1-6.7C256.7,54.8,257.3,54.6,257.9,54.4z"/>
		<path fill="#5C565A" d="M282.9,53.3l-0.1,2.6c0.3-0.3,0.8-0.7,1.3-1.2c0.5-0.4,1-0.8,1.6-1.2c0.5-0.4,1.1-0.7,1.6-1
			c0.6-0.3,1-0.4,1.5-0.4c0.1,0,0.2,0,0.2,0c0.1,0,0.1,0,0.2,0l-0.7,7.5c-0.1-1.1-0.4-2.1-0.8-3c-0.4-0.9-1.1-1.4-2-1.4
			c-0.5,0-1,0.1-1.4,0.3c-0.5,0.2-0.9,0.5-1.3,0.8c-0.3,3.3-0.4,6.7-0.4,10c0,0.4,0,0.9,0,1.5c0,0.6,0,1.2,0,1.8
			c0,0.6,0,1.2,0.1,1.8c0,0.6,0.1,1,0.1,1.4c0.1,0.4,0.3,0.8,0.6,1c0.3,0.3,0.6,0.4,0.9,0.6l-8.5,0.9c0.3-0.2,0.6-0.5,0.9-0.9
			c0.3-0.4,0.5-0.8,0.6-1.3c0-0.5,0.1-1,0.1-1.7c0-0.7,0.1-1.4,0.1-2.1c0-0.7,0-1.4,0-2.1c0-0.7,0-1.3,0-1.8c0-1.2,0-2.4,0-3.6
			c0-1.2-0.1-2.4-0.1-3.6c0-0.6,0-1.1,0-1.7c0-0.6,0-1.1-0.1-1.6c0-0.5-0.3-0.8-0.6-1.1c-0.4-0.3-0.7-0.5-1.1-0.5L282.9,53.3z"/>
		<path fill="#5C565A" d="M295.9,54.4c0.7-0.2,1.4-0.4,2.1-0.5c0.7-0.1,1.4-0.2,2.1-0.2c0.7,0,1.3-0.1,1.8-0.1c0.4,0,1.1,0,2,0.1
			c0.9,0.1,1.8,0.2,2.8,0.4c0.9,0.2,1.7,0.6,2.5,1c0.7,0.5,1.1,1.1,1.2,1.9v0.5c0,2.2-0.2,4.3-0.4,6.5c-0.3,2.2-0.4,4.3-0.4,6.5
			c0,0.3,0,0.7,0,1c0,0.3,0,0.7,0.1,1c0.1,1,0.6,1.8,1.4,2.3c0.8,0.5,1.5,0.8,2.3,1l-9.9,0.3c0.1-3,0.3-6,0.6-9c0.3-3,0.4-6,0.5-8.9
			c-0.6,0.5-1.3,1.2-2.1,2c-0.7,0.8-1.4,1.7-2.1,2.6c-0.6,0.9-1.2,1.9-1.6,3c-0.4,1-0.6,2.1-0.6,3c0,1.2,0.3,2.2,0.9,3.1
			c0.6,0.9,1.4,1.3,2.4,1.3c0.5,0,1-0.1,1.5-0.3c-0.9,0.7-2,1.3-3.4,1.8c-1.4,0.5-2.6,0.7-3.7,0.7c-1.3,0-2.4-0.4-3.5-1.2
			c-1-0.8-1.6-2.1-1.6-4c0-0.8,0.2-1.5,0.6-2.1c0.4-0.6,0.9-1.1,1.4-1.6c0.6-0.4,1.1-0.8,1.8-1.2c0.6-0.3,1.2-0.6,1.6-1
			c1.5-1,2.9-2.1,4.3-3.3s2.7-2.4,4.1-3.7c0-1-0.2-1.7-0.4-2.3c-0.3-0.5-0.8-0.8-1.7-0.8c-0.9,0-1.8,0.2-2.6,0.6
			c-0.8,0.4-1.6,0.9-2.3,1.6c-0.7,0.7-1.3,1.5-1.9,2.4c-0.5,0.9-1,1.9-1.2,2.9l0.1-6.7C294.7,54.8,295.2,54.6,295.9,54.4z"/>
		<path fill="#5C565A" d="M329.4,63.6c0-0.2,0.1-0.5,0.1-0.9c0-0.9-0.1-1.8-0.2-2.7c-0.1-0.9-0.4-1.7-0.8-2.4
			c-0.4-0.7-0.8-1.3-1.4-1.7c-0.6-0.4-1.3-0.6-2.2-0.6c-0.3,0-0.5,0-0.8,0.1c-0.3,0-0.5,0.1-0.8,0.2c-0.6,0.2-1.2,0.5-1.6,1.1
			c-0.4,0.6-0.7,1.2-1,2c-0.2,0.7-0.4,1.5-0.5,2.3c-0.1,0.8-0.1,1.5-0.1,2.2c0,0.6,0,1.3,0.1,1.9c0.1,0.6,0.1,1.3,0.2,1.9
			c0.2,1.2,0.6,2.4,1.2,3.4c0.6,1,1.3,1.8,2.2,2.5c0.9,0.7,1.8,1.2,2.8,1.6c1,0.4,1.9,0.5,2.9,0.5c0.9,0,1.7-0.2,2.5-0.5
			c0.8-0.3,1.5-0.9,2.1-1.7l0.3,0.4c-1.2,1.4-2.7,2.5-4.4,3.3c-1.8,0.8-3.4,1.2-5.1,1.2c-1.3,0-2.7-0.2-4-0.7
			c-1.4-0.5-2.6-1.2-3.7-2.2c-1.1-1-2-2.1-2.8-3.6c-0.7-1.4-1.1-3.1-1.1-4.9c0-1.2,0.2-2.4,0.5-3.6c0.4-1.1,0.8-2.2,1.4-3.2
			c1.2-1.9,2.8-3.2,4.7-3.9c1.9-0.7,3.8-1.1,5.7-1.1c0.9,0,1.8,0.1,2.7,0.2c0.9,0.1,1.8,0.3,2.7,0.5L329.4,63.6z"/>
		<path fill="#5C565A" d="M342.6,38.1c0,2.6-0.1,5.2-0.1,7.8c0,2.6-0.1,5.2-0.1,7.9h0.3c1.1,0,2.3,0,3.4,0c1.2,0,2.3-0.2,3.4-0.5
			l-0.6,1.8c-1.1-0.1-2.2-0.2-3.3-0.2c-0.6,0-1.1,0-1.6,0c-0.5,0-1,0.1-1.6,0.1c0,2.3,0,4.6,0,6.8c0,2.3,0,4.5,0,6.8V73
			c0,0.5,0,1,0,1.7c0,0.6,0,1.2,0.1,1.8s0.3,1.1,0.5,1.5c0.3,0.4,0.7,0.6,1.2,0.6c0.5,0,0.9-0.1,1.4-0.4c0.5-0.2,0.9-0.5,1.3-0.9
			l0.2,0.6c-0.6,0.4-1.2,0.8-1.9,1c-0.7,0.2-1.4,0.4-2,0.4c-0.5,0-0.9-0.1-1.3-0.2c-0.6-0.2-1.3-0.4-1.9-0.7
			c-0.6-0.3-1.2-0.7-1.7-1.2c-0.5-0.5-0.9-1-1.2-1.7c-0.3-0.7-0.4-1.5-0.4-2.4c0-1.1,0-2.2,0-3.3c0-1.1,0-2.2,0-3.3
			c0-1.9,0-3.8,0-5.8c0-2,0-3.9-0.1-5.8l-3.5,0.1l-0.2-1.3c0.3,0,2.5,0.1,2.8,0.1c0.3,0,0.5,0,0.8,0h0.1l0.1-4
			c0.6-0.7,1.2-1.5,1.7-2.4c0.6-0.9,1.1-1.9,1.6-3c0.5-1,0.9-2.1,1.4-3.2C342,40.1,342.3,39.1,342.6,38.1z"/>
		<path fill="#5C565A" d="M354.4,63.5c0.3,3.4,1.2,6,2.8,7.7c1.6,1.7,3.7,2.6,6.3,2.6c0.3,0,0.6,0,0.9,0c0.3,0,0.7,0,1-0.1
			c-1,0.7-2,1.3-3.1,1.7c-1.1,0.4-2.2,0.7-3.3,0.7c-1.3,0-2.6-0.3-3.8-1c-1.2-0.7-2.3-1.6-3.2-2.7c-0.9-1.1-1.6-2.4-2.2-3.9
			c-0.5-1.5-0.8-3.1-0.8-4.7c0-1.6,0.3-3.1,0.8-4.5c0.5-1.4,1.2-2.5,2.1-3.6c0.9-1,1.9-1.8,3-2.4s2.3-0.9,3.6-0.9
			c1.2,0,2.4,0.3,3.5,0.9c1.1,0.6,2.1,1.4,2.9,2.4c0.9,1,1.6,2.2,2.2,3.5c0.6,1.3,1.1,2.7,1.4,4.1L354.4,63.5z M362,59.3
			c-0.2-0.9-0.5-1.7-0.8-2.5c-0.3-0.8-0.8-1.4-1.3-2c-0.5-0.5-1.1-0.8-1.8-0.8c-0.7,0-1.3,0.3-1.8,0.9c-0.5,0.6-0.9,1.3-1.2,2.1
			c-0.3,0.8-0.5,1.7-0.6,2.7s-0.2,1.8-0.2,2.5l8.1-0.5C362.3,61,362.1,60.2,362,59.3z"/>
		<path fill="#5C565A" d="M377,53.3l-0.1,2.6c0.3-0.3,0.8-0.7,1.3-1.2c0.5-0.4,1-0.8,1.6-1.2c0.5-0.4,1.1-0.7,1.6-1
			c0.6-0.3,1-0.4,1.5-0.4c0.1,0,0.2,0,0.2,0c0.1,0,0.1,0,0.2,0l-0.7,7.5c-0.1-1.1-0.4-2.1-0.8-3c-0.4-0.9-1.1-1.4-2-1.4
			c-0.5,0-1,0.1-1.4,0.3c-0.5,0.2-0.9,0.5-1.3,0.8c-0.3,3.3-0.4,6.7-0.4,10c0,0.4,0,0.9,0,1.5c0,0.6,0,1.2,0,1.8
			c0,0.6,0,1.2,0.1,1.8c0,0.6,0.1,1,0.1,1.4c0.1,0.4,0.3,0.8,0.6,1c0.3,0.3,0.6,0.4,0.9,0.6l-8.5,0.9c0.3-0.2,0.6-0.5,0.9-0.9
			c0.3-0.4,0.5-0.8,0.6-1.3c0-0.5,0.1-1,0.1-1.7c0-0.7,0.1-1.4,0.1-2.1c0-0.7,0-1.4,0-2.1c0-0.7,0-1.3,0-1.8c0-1.2,0-2.4,0-3.6
			c0-1.2-0.1-2.4-0.1-3.6c0-0.6,0-1.1,0-1.7c0-0.6,0-1.1-0.1-1.6c0-0.5-0.3-0.8-0.6-1.1c-0.4-0.3-0.7-0.5-1.1-0.5L377,53.3z"/>
	</g>
	<g>
		<g>
			<path fill="#5C565A" d="M59,36.1c-0.2-0.8-0.3-1.2-0.5-1.4c-0.3-0.4-0.5-0.5-1.7-0.5h-1.1V42c0,1.3,0.1,1.4,1.6,1.5V44h-4.6v-0.4
				c1.5-0.1,1.6-0.3,1.6-1.5v-7.9h-1c-1.3,0-1.6,0.1-1.9,0.5c-0.2,0.3-0.3,0.7-0.5,1.4h-0.5c0.1-1,0.2-2,0.2-2.9h0.3
				c0.2,0.4,0.4,0.4,0.9,0.4h6.3c0.4,0,0.6-0.1,0.8-0.4h0.3c0,0.7,0.1,1.9,0.2,2.8L59,36.1z"/>
			<path fill="#5C565A" d="M71.5,34c-1.3,0.1-1.4,0.2-1.4,1.5V42c0,1.3,0.1,1.4,1.4,1.5V44h-4.3v-0.4c1.4-0.1,1.5-0.2,1.5-1.5v-3.2
				h-5.5V42c0,1.3,0.1,1.4,1.4,1.5V44h-4.2v-0.4c1.3-0.1,1.4-0.2,1.4-1.5v-6.5c0-1.3-0.1-1.4-1.4-1.5v-0.4h4.1V34
				c-1.2,0.1-1.3,0.2-1.3,1.5v2.6h5.5v-2.6c0-1.3-0.1-1.4-1.4-1.5v-0.4h4.2V34z"/>
			<path fill="#5C565A" d="M80.8,41.4c-0.1,0.5-0.4,2-0.6,2.5h-7.7v-0.4c1.5-0.1,1.6-0.2,1.6-1.5v-6.4c0-1.4-0.1-1.5-1.4-1.6v-0.4
				h7.1c0,0.4,0.1,1.5,0.1,2.3L79.6,36c-0.1-0.7-0.3-1-0.5-1.4c-0.2-0.3-0.7-0.4-1.8-0.4H76c-0.5,0-0.5,0-0.5,0.5v3.6H77
				c1.4,0,1.5-0.1,1.7-1.2h0.5v3.1h-0.5c-0.2-1.2-0.3-1.2-1.7-1.2h-1.5v3c0,0.8,0.1,1.1,0.4,1.3c0.3,0.2,0.9,0.2,1.7,0.2
				c1.2,0,1.7-0.1,2-0.5c0.3-0.3,0.6-0.9,0.8-1.5L80.8,41.4z"/>
		</g>
	</g>
	<g>
		<g>
			<path fill="#5C565A" d="M259.8,98.2c-0.3,0.9-0.8,2.4-1.1,3.1c-0.6,0.1-2.2,0.5-3.7,0.5c-5,0-7.2-3.4-7.2-6.6c0-4.2,3.2-7,7.7-7
				c1.6,0,3,0.4,3.5,0.5c0.2,1.1,0.3,1.9,0.4,3l-0.6,0.1c-0.5-2.1-1.7-3-3.9-3c-3.3,0-5.1,2.8-5.1,5.9c0,3.7,2.2,6.3,5.2,6.3
				c2,0,3.1-1.1,4.1-3.1L259.8,98.2z"/>
			<path fill="#5C565A" d="M274.5,94.8c0,4.3-3,7-6.7,7c-3.6,0-6.5-2.8-6.5-6.7c0-3.6,2.5-6.9,6.7-6.9
				C271.4,88.2,274.5,90.8,274.5,94.8z M263.3,94.6c0,3.8,2.1,6.5,4.9,6.5c2.2,0,4.2-1.9,4.2-5.7c0-4.2-2.2-6.5-4.8-6.5
				C265.4,88.9,263.3,90.8,263.3,94.6z"/>
			<path fill="#5C565A" d="M287,101.5v-0.6c1.6-0.2,1.7-0.3,1.7-2.4l-0.1-8.2h-0.1l-4.9,11h-0.4l-4.5-10.7h0l-0.3,5.7
				c-0.1,1.6-0.1,2.5-0.1,3.3c0,1,0.5,1.1,1.8,1.2v0.6h-4.7v-0.6c1.2-0.1,1.6-0.4,1.7-1.2c0.1-0.7,0.2-1.6,0.4-3.7l0.3-4.2
				c0.2-2.6,0.1-2.7-1.7-2.9v-0.6h3.3l4.6,10l4.6-10h3.4V89c-1.8,0.2-1.9,0.2-1.8,2.3l0.2,7.2c0.1,2.1,0.1,2.2,1.9,2.4v0.6H287z"/>
			<path fill="#5C565A" d="M298.7,88.5c1.4,0,2.6,0.2,3.4,0.8c0.8,0.6,1.3,1.5,1.3,2.8c0,2.6-2,3.8-3.9,4.1c-0.3,0-0.7,0-0.9,0
				l-1.5-0.4V99c0,1.7,0.2,1.8,2,1.9v0.6h-5.4v-0.6c1.6-0.1,1.8-0.3,1.8-1.9v-8c0-1.8-0.2-1.8-1.6-1.9v-0.6H298.7z M297.1,95.2
				c0.3,0.1,0.8,0.2,1.5,0.2c1.3,0,2.9-0.7,2.9-3.2c0-2.2-1.4-3.1-3-3.1c-0.6,0-1,0.1-1.1,0.2c-0.2,0.1-0.2,0.4-0.2,0.9V95.2z"/>
			<path fill="#5C565A" d="M311,101.5v-0.6c1.3-0.2,1.4-0.3,1.2-1.1c-0.3-0.8-0.7-1.9-1.1-3.1h-4.3c-0.3,0.9-0.6,1.7-0.9,2.6
				c-0.4,1.3-0.3,1.5,1.2,1.6v0.6h-4.3v-0.6c1.3-0.2,1.5-0.3,2.2-2.1l4.1-10.5l0.6-0.2c1.2,3.4,2.6,7.2,3.9,10.7
				c0.6,1.7,0.9,1.9,2.2,2v0.6H311z M309,90.8L309,90.8c-0.7,1.7-1.3,3.5-1.9,5.1h3.7L309,90.8z"/>
			<path fill="#5C565A" d="M330.6,89c-1.1,0.1-1.6,0.3-1.7,1.2c-0.1,0.6-0.1,1.5-0.1,3.4v8.1h-0.6l-8.5-10.5h0v5
				c0,1.8,0.1,2.8,0.1,3.4c0.1,1,0.6,1.3,1.9,1.3v0.6h-4.7v-0.6c1.2-0.1,1.7-0.3,1.8-1.3c0.1-0.6,0.1-1.6,0.1-3.4v-4.4
				c0-1.5,0-1.5-0.4-2c-0.4-0.5-0.8-0.7-1.8-0.7v-0.6h3l8.3,10h0.1v-4.9c0-1.8-0.1-2.8-0.1-3.3c-0.1-0.9-0.6-1.2-2-1.2v-0.6h4.7V89z
				"/>
			<path fill="#5C565A" d="M343.5,89c-1.4,0.2-1.6,0.4-2.4,1.6c-0.9,1.5-1.6,2.6-2.5,4.4c-0.3,0.5-0.3,0.7-0.3,1.3V99
				c0,1.7,0.2,1.8,2,1.9v0.6h-5.7v-0.6c1.8-0.1,2-0.2,2-1.9v-2.7c0-0.4-0.1-0.6-0.4-1.2c-0.7-1.2-1.4-2.5-2.5-4.4
				c-0.8-1.4-1-1.6-2.2-1.7v-0.6h4.8V89c-1.4,0.2-1.4,0.4-1,1.1c0.8,1.6,1.8,3.2,2.7,4.7c0.7-1.3,1.8-3.3,2.4-4.5
				c0.5-1,0.4-1.2-1.2-1.3v-0.6h4.4V89z"/>
		</g>
	</g>
</g>
</svg>
