<?xml version="1.0" encoding="utf-8"?>
<!-- Generator: Adobe Illustrator 18.0.0, SVG Export Plug-In . SVG Version: 6.00 Build 0)  -->
<!DOCTYPE svg PUBLIC "-//W3C//DTD SVG 1.1//EN" "http://www.w3.org/Graphics/SVG/1.1/DTD/svg11.dtd">
<svg version="1.1" id="Layer_1" xmlns="http://www.w3.org/2000/svg" xmlns:xlink="http://www.w3.org/1999/xlink" x="0px" y="0px"
	 viewBox="0 0 148.3 100.2" enable-background="new 0 0 148.3 100.2" xml:space="preserve">
<g>
	<g>
		<path fill="#5C565A" d="M22.6,24.9c0-0.1,0-0.2,0-0.4c0-0.1,0-0.2,0-0.4c0-0.6-0.1-1.2-0.3-1.8c-0.2-0.6-0.5-1.2-0.8-1.7
			c-0.3-0.5-0.7-0.9-1.2-1.2C19.9,19.2,19.5,19,19,19c-0.4,0-0.8,0.2-1.2,0.6c-0.4,0.4-0.6,0.9-0.6,1.4c0,0.5,0.3,1.3,0.8,2.2
			c0.5,0.9,1.2,1.9,1.9,2.9c0.7,1,1.4,1.9,2.1,2.8c0.7,0.9,1.2,1.5,1.5,1.9c0.5,0.6,1,1.3,1.5,1.9c0.5,0.6,1,1.3,1.4,2
			c0.3,0.4,0.5,0.8,0.7,1.2s0.3,0.9,0.3,1.4c0,0.6-0.1,1.2-0.4,1.7c-0.3,0.5-0.6,1-1,1.4c-0.4,0.4-0.8,0.8-1.3,1.1
			c-0.5,0.3-0.9,0.7-1.2,0.9c-0.5,0.4-1.1,0.8-1.6,1.1c-0.6,0.4-1.2,0.7-1.8,1c-0.6,0.3-1.2,0.5-1.8,0.7c-0.6,0.2-1.2,0.3-1.8,0.3
			c-0.4,0-0.8-0.1-1.2-0.2c-0.4-0.1-0.8-0.3-1.2-0.5l-0.3-10.3c0.1,0.8,0.3,1.6,0.6,2.4c0.3,0.8,0.7,1.5,1.1,2.2
			c0.4,0.7,0.9,1.3,1.4,1.9c0.5,0.6,1.1,1,1.6,1.4c0.3,0.2,0.7,0.4,1,0.5c0.4,0.2,0.7,0.2,1.1,0.2c0.5,0,0.9-0.2,1.3-0.6
			c0.3-0.4,0.5-0.9,0.5-1.6c0-1-0.3-2.1-1-3.3c-0.7-1.2-1.5-2.4-2.4-3.6s-1.9-2.3-2.8-3.4c-0.9-1.1-1.7-2-2.2-2.7
			c-0.3-0.5-0.6-1-0.9-1.6c-0.3-0.6-0.4-1.2-0.4-1.9c0-0.6,0.1-1.2,0.4-1.7c0.2-0.5,0.5-1,0.9-1.4c0.4-0.4,0.8-0.8,1.2-1.1
			c0.4-0.3,0.8-0.6,1.2-0.9c1.1-0.8,2.4-1.3,3.7-1.6c1.4-0.3,2.7-0.4,4-0.4h0.6L22.6,24.9z"/>
		<path fill="#5C565A" d="M34.6,16c0,1.8-0.1,3.6-0.1,5.4c0,1.8,0,3.6-0.1,5.4h0.2c0.8,0,1.5,0,2.4,0c0.8,0,1.6-0.1,2.3-0.3
			l-0.4,1.2c-0.8-0.1-1.5-0.1-2.2-0.1c-0.4,0-0.7,0-1.1,0c-0.4,0-0.7,0-1.1,0.1c0,1.6,0,3.2,0,4.7c0,1.6,0,3.1,0,4.7V40
			c0,0.3,0,0.7,0,1.2c0,0.4,0,0.9,0.1,1.3s0.2,0.7,0.4,1c0.2,0.3,0.5,0.4,0.9,0.4c0.3,0,0.7-0.1,1-0.2c0.3-0.2,0.6-0.4,0.9-0.6
			l0.1,0.4c-0.4,0.3-0.8,0.5-1.3,0.7c-0.5,0.2-1,0.2-1.4,0.2c-0.3,0-0.6,0-0.9-0.1c-0.4-0.1-0.9-0.3-1.3-0.5
			c-0.4-0.2-0.8-0.5-1.2-0.8c-0.4-0.3-0.6-0.7-0.8-1.2c-0.2-0.5-0.3-1-0.3-1.7c0-0.8,0-1.5,0-2.3c0-0.8,0-1.5,0-2.3c0-1.3,0-2.6,0-4
			c0-1.3,0-2.7,0-4l-3.1,0l-0.1-0.9c0.2,0,2.4,0.1,2.5,0.1c0.2,0,0.4,0,0.5,0h0.1l0.1-2.8c0.4-0.5,0.8-1,1.2-1.7
			c0.4-0.6,0.7-1.3,1.1-2c0.3-0.7,0.7-1.4,0.9-2.2C34.1,17.4,34.4,16.7,34.6,16z"/>
		<path fill="#5C565A" d="M53.2,35.8c0,1.3-0.2,2.5-0.7,3.5c-0.5,1.1-1.1,2-1.8,2.8s-1.6,1.4-2.5,1.8c-0.9,0.4-1.9,0.6-2.8,0.6
			c-0.9,0-1.7-0.2-2.5-0.5c-0.8-0.4-1.5-0.9-2.2-1.5c-0.6-0.6-1.1-1.4-1.5-2.4c-0.4-0.9-0.6-2-0.6-3.1c0-1.3,0.2-2.4,0.7-3.5
			c0.5-1.1,1.1-2,1.8-2.8c0.7-0.8,1.6-1.4,2.5-1.8c0.9-0.4,1.9-0.6,2.8-0.6c0.9,0,1.7,0.2,2.5,0.5c0.8,0.4,1.5,0.9,2.2,1.5
			c0.6,0.6,1.1,1.4,1.5,2.4C53,33.6,53.2,34.7,53.2,35.8z M44.6,29.5c-0.9,0-1.6,0.4-2.1,1.3c-0.4,0.8-0.7,1.8-0.7,2.8
			c0,0.9,0.1,1.9,0.4,3c0.3,1.1,0.7,2.2,1.2,3.2c0.5,1,1.1,1.8,1.8,2.5s1.5,1,2.2,1c0.4,0,0.8-0.1,1.1-0.3c0.3-0.2,0.5-0.5,0.7-0.9
			s0.3-0.7,0.4-1.2S50,40,50,39.5c0-0.9-0.1-1.9-0.4-3c-0.3-1.2-0.6-2.3-1.1-3.3c-0.5-1-1-1.9-1.7-2.6
			C46.2,29.8,45.4,29.5,44.6,29.5z"/>
		<path fill="#5C565A" d="M59.1,26.4l0,1.8c0.2-0.2,0.5-0.5,0.9-0.8c0.4-0.3,0.7-0.6,1.1-0.8c0.4-0.3,0.7-0.5,1.1-0.7
			c0.4-0.2,0.7-0.3,1-0.3c0.1,0,0.1,0,0.2,0c0,0,0.1,0,0.2,0L63,30.9c-0.1-0.7-0.3-1.4-0.6-2c-0.3-0.6-0.8-0.9-1.4-0.9
			c-0.3,0-0.7,0.1-1,0.2c-0.3,0.1-0.6,0.3-0.9,0.6c-0.2,2.3-0.3,4.6-0.3,6.9c0,0.3,0,0.6,0,1.1c0,0.4,0,0.8,0,1.3c0,0.4,0,0.8,0,1.2
			c0,0.4,0,0.7,0.1,0.9c0.1,0.3,0.2,0.5,0.4,0.7c0.2,0.2,0.4,0.3,0.6,0.4l-5.9,0.6c0.2-0.1,0.4-0.4,0.6-0.6s0.3-0.6,0.4-0.9
			c0-0.3,0.1-0.7,0.1-1.2c0-0.5,0.1-0.9,0.1-1.4c0-0.5,0-1,0-1.5s0-0.9,0-1.2c0-0.8,0-1.6,0-2.5c0-0.8,0-1.7-0.1-2.5
			c0-0.4,0-0.8,0-1.2s0-0.8-0.1-1.1c0-0.3-0.2-0.6-0.4-0.8c-0.3-0.2-0.5-0.3-0.7-0.4L59.1,26.4z"/>
		<path fill="#5C565A" d="M70.2,27.2c-0.2,0.1-0.4,0.3-0.7,0.6c-0.3,0.3-0.4,0.5-0.4,0.8c0,0,0,0.2,0.1,0.6s0.2,0.8,0.3,1.3
			c0.1,0.5,0.3,1.1,0.4,1.7c0.2,0.6,0.3,1.2,0.5,1.7c0.1,0.5,0.3,1,0.4,1.4c0.1,0.4,0.2,0.7,0.2,0.8c0.1-0.1,0.2-0.5,0.3-0.9
			c0.2-0.5,0.4-1,0.6-1.6c0.2-0.6,0.4-1.3,0.7-1.9c0.2-0.7,0.5-1.3,0.7-1.9c0.2-0.6,0.4-1.1,0.5-1.5c0.1-0.4,0.2-0.7,0.2-0.7
			c0-0.2-0.1-0.5-0.2-0.7c-0.1-0.2-0.3-0.3-0.5-0.4l4.3-0.2c-0.3,0.1-0.7,0.4-1.1,0.7c-0.4,0.3-0.7,0.6-0.9,1
			c-0.2,0.5-0.5,0.9-0.7,1.4c-0.2,0.5-0.4,1-0.7,1.5c-1.2,2.6-2.3,5.2-3.2,7.9c-1,2.7-2,5.3-3.1,8c-0.3,0.8-0.8,1.7-1.3,2.7
			c-0.6,1-1.2,1.9-1.9,2.8c-0.7,0.9-1.5,1.6-2.2,2.1c-0.8,0.6-1.6,0.9-2.4,0.9c-0.2,0-0.5,0-0.7-0.1l-1.7-4.4
			c0.6,0.6,1.4,0.9,2.2,0.9c0.7,0,1.4-0.2,2.1-0.5s1.4-0.8,2-1.4c0.7-0.6,1.3-1.2,1.8-1.9c0.5-0.7,1-1.4,1.3-2.1
			c0.3-0.6,0.6-1.2,0.8-1.9c0.2-0.7,0.4-1.4,0.5-2l-3.6-13c-0.1-0.3-0.3-0.6-0.6-0.8c-0.3-0.2-0.6-0.4-0.8-0.5L70.2,27.2z"/>
		<path fill="#5C565A" d="M92.2,32.9c0,0.6-0.1,1.1-0.2,1.6c-0.1,0.5-0.3,1-0.6,1.5c-0.4,0.8-0.9,1.4-1.4,2c-0.6,0.5-1.2,1-1.8,1.3
			c-0.7,0.4-1.3,0.6-2.1,0.8c-0.7,0.2-1.4,0.2-2.1,0.2c-0.2,0-0.4,0-0.6,0c-0.2,0-0.4,0-0.6,0v1.3l-5,0.1c0.3-0.3,0.6-0.6,0.7-1.1
			s0.3-0.9,0.3-1.4c0.1-0.3,0.1-0.6,0.1-0.9c0-0.3,0-0.6,0-0.9c0.1-1,0.1-2.1,0.1-3.1c0-1,0-2.1,0-3.1c0-1.3,0-2.7-0.1-4
			c0-1.3-0.1-2.7-0.2-4c0-0.6-0.1-1.3-0.1-2c0-0.8-0.1-1.4-0.1-2c-0.1-0.6-0.3-1-0.7-1.4c-0.4-0.3-0.8-0.5-1.3-0.7l6.6-0.2L83,27.2
			c0.5-0.4,1.1-0.7,1.8-1s1.3-0.4,1.9-0.4c0.6,0,1.2,0.1,1.8,0.4c0.5,0.3,1,0.7,1.5,1.1c0.4,0.5,0.8,1,1.1,1.7
			c0.3,0.6,0.6,1.3,0.8,2C92.1,31.6,92.2,32.2,92.2,32.9z M84.7,27.7c-0.3,0-0.6,0.1-0.9,0.2c-0.3,0.1-0.6,0.3-0.8,0.5l-0.3,11
			c0.1,0.1,0.3,0.1,0.4,0.1c0.1,0,0.3,0,0.4,0c0.6,0,1.3-0.2,1.8-0.5c0.6-0.3,1.1-0.8,1.5-1.4c0.4-0.6,0.8-1.2,1-2
			c0.2-0.7,0.4-1.5,0.4-2.3c0-0.6-0.1-1.3-0.3-1.9c-0.2-0.7-0.4-1.3-0.7-1.8c-0.3-0.6-0.7-1-1.1-1.4C85.7,27.9,85.3,27.7,84.7,27.7z
			"/>
		<path fill="#5C565A" d="M107.1,35.8c0,1.3-0.2,2.5-0.7,3.5c-0.5,1.1-1.1,2-1.8,2.8s-1.6,1.4-2.5,1.8c-0.9,0.4-1.9,0.6-2.8,0.6
			c-0.9,0-1.7-0.2-2.5-0.5c-0.8-0.4-1.5-0.9-2.2-1.5c-0.6-0.6-1.1-1.4-1.5-2.4c-0.4-0.9-0.6-2-0.6-3.1c0-1.3,0.2-2.4,0.7-3.5
			c0.5-1.1,1.1-2,1.8-2.8c0.7-0.8,1.6-1.4,2.5-1.8c0.9-0.4,1.9-0.6,2.8-0.6c0.9,0,1.7,0.2,2.5,0.5c0.8,0.4,1.5,0.9,2.2,1.5
			c0.6,0.6,1.1,1.4,1.5,2.4C106.9,33.6,107.1,34.7,107.1,35.8z M98.5,29.5c-0.9,0-1.6,0.4-2.1,1.3c-0.4,0.8-0.7,1.8-0.7,2.8
			c0,0.9,0.1,1.9,0.4,3c0.3,1.1,0.7,2.2,1.2,3.2c0.5,1,1.1,1.8,1.8,2.5s1.5,1,2.2,1c0.4,0,0.8-0.1,1.1-0.3c0.3-0.2,0.5-0.5,0.7-0.9
			s0.3-0.7,0.4-1.2s0.1-0.9,0.1-1.4c0-0.9-0.1-1.9-0.4-3c-0.3-1.2-0.6-2.3-1.1-3.3c-0.5-1-1-1.9-1.7-2.6
			C100.1,29.8,99.3,29.5,98.5,29.5z"/>
		<path fill="#5C565A" d="M122.6,35.8c0,1.3-0.2,2.5-0.7,3.5c-0.5,1.1-1.1,2-1.8,2.8s-1.6,1.4-2.5,1.8c-0.9,0.4-1.9,0.6-2.8,0.6
			c-0.9,0-1.7-0.2-2.5-0.5c-0.8-0.4-1.5-0.9-2.2-1.5c-0.6-0.6-1.1-1.4-1.5-2.4c-0.4-0.9-0.6-2-0.6-3.1c0-1.3,0.2-2.4,0.7-3.5
			c0.5-1.1,1.1-2,1.8-2.8c0.7-0.8,1.6-1.4,2.5-1.8c0.9-0.4,1.9-0.6,2.8-0.6c0.9,0,1.7,0.2,2.5,0.5c0.8,0.4,1.5,0.9,2.2,1.5
			c0.6,0.6,1.1,1.4,1.5,2.4C122.4,33.6,122.6,34.7,122.6,35.8z M114,29.5c-0.9,0-1.6,0.4-2.1,1.3c-0.4,0.8-0.7,1.8-0.7,2.8
			c0,0.9,0.1,1.9,0.4,3c0.3,1.1,0.7,2.2,1.2,3.2c0.5,1,1.1,1.8,1.8,2.5s1.5,1,2.2,1c0.4,0,0.8-0.1,1.1-0.3c0.3-0.2,0.5-0.5,0.7-0.9
			s0.3-0.7,0.4-1.2s0.1-0.9,0.1-1.4c0-0.9-0.1-1.9-0.4-3c-0.3-1.2-0.6-2.3-1.1-3.3c-0.5-1-1-1.9-1.7-2.6
			C115.6,29.8,114.8,29.5,114,29.5z"/>
		<path fill="#5C565A" d="M129.6,19.1c-0.2,0.1-0.5,0.3-0.7,0.5c-0.2,0.2-0.4,0.5-0.5,0.8c0,0.1,0,0.4,0,0.9c0,0.5-0.1,1.1-0.1,1.8
			c0,0.7-0.1,1.5-0.1,2.4c0,0.9-0.1,1.7-0.1,2.4c0,0.7,0,1.4,0,2c0,0.6,0,0.9,0,1.1c0.1-0.2,0.4-0.5,0.9-1c0.4-0.5,0.9-1,1.3-1.5
			c0.4-0.5,0.8-1,1.2-1.5c0.4-0.5,0.5-0.8,0.5-1c0-0.1-0.1-0.3-0.2-0.4s-0.3-0.2-0.4-0.3l4.6-0.3c-0.3,0.1-0.7,0.3-1,0.5
			c-0.4,0.2-0.6,0.4-0.9,0.6c-0.3,0.3-0.6,0.5-0.8,0.8c-0.2,0.3-0.5,0.6-0.8,0.9c-0.6,0.6-1.2,1.2-1.8,1.8c-0.6,0.6-1.2,1.2-1.8,1.8
			c0.5,0.8,1,1.8,1.7,2.9c0.7,1.1,1.4,2.2,2.2,3.3s1.5,2.1,2.3,3.1c0.8,1,1.5,1.7,2.1,2.3c0.3,0.2,0.6,0.4,1,0.6
			c0.4,0.2,0.8,0.3,1.1,0.5l-7.8,0.1c0.1-0.1,0.4-0.2,0.6-0.5c0.3-0.2,0.4-0.4,0.4-0.7c0-0.4-0.2-1-0.6-1.9c-0.4-0.9-0.8-1.9-1.3-3
			c-0.5-1.1-1-2.1-1.5-3.1c-0.5-1-0.8-1.7-1-2.1c0,0.6,0,1.3,0,1.9c0,0.6,0,1.2,0,1.9c0,0.2,0,0.5,0,1c0,0.5,0,1,0,1.5s0,1,0,1.5
			c0,0.5,0,0.7,0.1,0.9c0.1,0.2,0.2,0.4,0.3,0.6c0.1,0.1,0.3,0.3,0.4,0.4l-5.6,0.1c0.3-0.1,0.5-0.2,0.8-0.5c0.2-0.2,0.4-0.5,0.4-0.9
			c0.1-0.4,0.1-0.8,0-1.3c0-0.5,0-0.9,0-1.3c0-0.9,0-1.7,0-2.6c0-0.9,0-1.8,0-2.6v-3.2c0-1.3,0-2.6,0-3.9c0-1.3,0-2.6,0-4
			c0,0,0-0.1,0-0.3c0-0.2,0-0.4,0-0.6c0-0.2,0-0.4,0-0.6c0-0.2,0-0.3,0-0.3c-0.1-0.4-0.2-0.6-0.4-0.9c-0.2-0.2-0.4-0.4-0.7-0.5
			L129.6,19.1z"/>
	</g>
	<g>
		<path fill="#5C565A" d="M31.7,67.4c-0.1,0.3-0.2,0.7-0.5,1.1c-0.2,0.4-0.5,0.7-0.7,1c-1.1,1.5-2.4,2.6-4,3.5
			c-1.5,0.8-3.1,1.3-4.7,1.3c-1.6,0-3-0.3-4.3-1c-1.3-0.7-2.3-1.6-3.2-2.8c-0.9-1.2-1.5-2.6-2-4.3s-0.7-3.4-0.7-5.3
			c0-1.5,0.2-2.9,0.6-4.2c0.4-1.3,0.9-2.5,1.6-3.6c0.7-1.1,1.5-2,2.4-2.9s1.9-1.5,3-2.1c0.6-0.3,1.2-0.5,1.9-0.6s1.3-0.2,2-0.2
			c0.9,0,1.7,0.1,2.6,0.2c0.8,0.1,1.7,0.3,2.5,0.6l-1.5,7.5V55c0-0.8-0.1-1.5-0.2-2.4c-0.1-0.8-0.3-1.5-0.6-2.2s-0.7-1.2-1.2-1.6
			c-0.5-0.4-1.1-0.6-1.8-0.6c-0.9,0-1.6,0.2-2.3,0.6c-0.7,0.4-1.3,1-1.8,1.7c-0.5,0.7-0.9,1.5-1.3,2.5c-0.3,0.9-0.5,1.9-0.5,2.9v0.8
			c0,1.4,0.1,2.8,0.2,4.2c0.2,1.4,0.4,2.7,0.8,4c0.4,1.3,0.9,2.4,1.6,3.5s1.6,1.9,2.6,2.6c0.6,0.4,1.2,0.6,1.8,0.8
			c0.6,0.2,1.3,0.3,2,0.3c0.2,0,0.3,0,0.4,0c0.8-0.1,1.6-0.5,2.2-1s1.2-1.3,1.8-2.1c0.1-0.2,0.3-0.5,0.4-0.7
			c0.1-0.2,0.3-0.5,0.4-0.8L31.7,67.4z"/>
		<path fill="#5C565A" d="M31.7,52.7l5.7-0.1l-0.2,8.3c0.6-0.4,1.4-0.7,2.3-1c0.9-0.3,1.7-0.5,2.4-0.5c0.5,0,0.9,0.1,1.2,0.3
			c0.3,0.2,0.5,0.5,0.6,0.9c0.1,0.4,0.2,0.8,0.2,1.3c0,0.5,0,1,0,1.5v3.4c0,0.8,0,1.7,0,2.8c0,1,0,1.9,0.1,2.7
			c0.1,0.5,0.3,0.9,0.6,1.3c0.3,0.4,0.7,0.6,1,0.8L40,74.4c0-0.9-0.1-1.7-0.1-2.5c0-0.8,0-1.6,0-2.5c0-1.3,0-2.6,0.1-3.8
			c0-1.2,0.1-2.5,0.2-3.8v-0.1c0-0.4-0.2-0.7-0.6-0.7c-0.3,0-0.7,0.1-1.2,0.4c-0.5,0.2-0.9,0.5-1.2,0.7c-0.1,1.9-0.1,3.9-0.1,5.7
			c0,1.9,0,3.8,0,5.7c0,0.3,0.1,0.6,0.4,0.9c0.2,0.4,0.4,0.6,0.6,0.7l-5.6,0.2c0.2-0.1,0.3-0.3,0.5-0.6c0.2-0.3,0.3-0.5,0.3-0.8
			c0.1-0.5,0.1-1,0.1-1.6c0-0.5,0.1-1.1,0.1-1.6c0.1-1.3,0.1-2.6,0.1-4c0-1.3,0-2.6,0-4c0-1,0-2,0-2.9c0-1,0-2,0-2.9
			c0-0.4,0-0.9,0-1.4c0-0.5,0-1-0.1-1.4c-0.1-0.4-0.3-0.7-0.7-1C32.3,53,32,52.8,31.7,52.7z"/>
		<path fill="#5C565A" d="M49.4,57.2c0.5-0.1,0.9-0.3,1.4-0.3c0.5-0.1,1-0.1,1.5-0.2c0.5,0,0.9,0,1.2,0c0.3,0,0.8,0,1.4,0.1
			s1.3,0.1,1.9,0.3c0.6,0.1,1.2,0.4,1.7,0.7c0.5,0.3,0.8,0.7,0.8,1.3v0.4c0,1.5-0.1,3-0.3,4.5c-0.2,1.5-0.3,3-0.3,4.5
			c0,0.2,0,0.5,0,0.7c0,0.2,0,0.5,0,0.7c0.1,0.7,0.4,1.2,0.9,1.6c0.5,0.4,1.1,0.6,1.6,0.7l-6.8,0.2c0.1-2.1,0.2-4.1,0.4-6.2
			c0.2-2.1,0.3-4.1,0.3-6.1c-0.4,0.4-0.9,0.8-1.4,1.4c-0.5,0.6-1,1.2-1.4,1.8c-0.4,0.6-0.8,1.3-1.1,2c-0.3,0.7-0.4,1.4-0.4,2.1
			c0,0.8,0.2,1.5,0.6,2.1c0.4,0.6,1,0.9,1.6,0.9c0.3,0,0.7-0.1,1.1-0.2c-0.6,0.5-1.4,0.9-2.4,1.2c-1,0.3-1.8,0.5-2.5,0.5
			c-0.9,0-1.7-0.3-2.4-0.8c-0.7-0.6-1.1-1.5-1.1-2.7c0-0.6,0.1-1,0.4-1.5c0.3-0.4,0.6-0.8,1-1.1c0.4-0.3,0.8-0.6,1.2-0.8
			c0.4-0.2,0.8-0.4,1.1-0.7c1-0.7,2-1.5,3-2.2s1.9-1.6,2.8-2.6c0-0.7-0.1-1.2-0.3-1.6c-0.2-0.4-0.6-0.5-1.1-0.5
			c-0.6,0-1.2,0.1-1.8,0.4c-0.6,0.3-1.1,0.7-1.6,1.1c-0.5,0.5-0.9,1-1.3,1.6c-0.4,0.6-0.7,1.3-0.9,2l0.1-4.6
			C48.6,57.6,48.9,57.4,49.4,57.2z"/>
		<path fill="#5C565A" d="M66.5,56.5l0,1.8c0.2-0.2,0.5-0.5,0.9-0.8c0.4-0.3,0.7-0.6,1.1-0.8c0.4-0.3,0.7-0.5,1.1-0.7
			c0.4-0.2,0.7-0.3,1-0.3c0.1,0,0.1,0,0.2,0c0,0,0.1,0,0.2,0l-0.5,5.1c-0.1-0.7-0.3-1.4-0.6-2c-0.3-0.6-0.8-0.9-1.4-0.9
			c-0.3,0-0.7,0.1-1,0.2c-0.3,0.1-0.6,0.3-0.9,0.6c-0.2,2.3-0.3,4.6-0.3,6.9c0,0.3,0,0.6,0,1.1c0,0.4,0,0.8,0,1.3c0,0.4,0,0.8,0,1.2
			c0,0.4,0,0.7,0.1,0.9c0.1,0.3,0.2,0.5,0.4,0.7c0.2,0.2,0.4,0.3,0.6,0.4l-5.9,0.6c0.2-0.1,0.4-0.4,0.6-0.6c0.2-0.3,0.3-0.6,0.4-0.9
			c0-0.3,0.1-0.7,0.1-1.2c0-0.5,0.1-0.9,0.1-1.4c0-0.5,0-1,0-1.5c0-0.5,0-0.9,0-1.2c0-0.8,0-1.6,0-2.5s0-1.7-0.1-2.5
			c0-0.4,0-0.8,0-1.2c0-0.4,0-0.8-0.1-1.1c0-0.3-0.2-0.6-0.4-0.8c-0.3-0.2-0.5-0.3-0.7-0.4L66.5,56.5z"/>
		<path fill="#5C565A" d="M75.5,57.2c0.5-0.1,0.9-0.3,1.4-0.3c0.5-0.1,1-0.1,1.5-0.2c0.5,0,0.9,0,1.2,0c0.3,0,0.8,0,1.4,0.1
			s1.3,0.1,1.9,0.3c0.6,0.1,1.2,0.4,1.7,0.7c0.5,0.3,0.8,0.7,0.8,1.3v0.4c0,1.5-0.1,3-0.3,4.5c-0.2,1.5-0.3,3-0.3,4.5
			c0,0.2,0,0.5,0,0.7c0,0.2,0,0.5,0,0.7c0.1,0.7,0.4,1.2,0.9,1.6c0.5,0.4,1.1,0.6,1.6,0.7l-6.8,0.2c0.1-2.1,0.2-4.1,0.4-6.2
			c0.2-2.1,0.3-4.1,0.3-6.1c-0.4,0.4-0.9,0.8-1.4,1.4c-0.5,0.6-1,1.2-1.4,1.8c-0.4,0.6-0.8,1.3-1.1,2c-0.3,0.7-0.4,1.4-0.4,2.1
			c0,0.8,0.2,1.5,0.6,2.1c0.4,0.6,1,0.9,1.6,0.9c0.3,0,0.7-0.1,1.1-0.2c-0.6,0.5-1.4,0.9-2.4,1.2c-1,0.3-1.8,0.5-2.5,0.5
			c-0.9,0-1.7-0.3-2.4-0.8c-0.7-0.6-1.1-1.5-1.1-2.7c0-0.6,0.1-1,0.4-1.5c0.3-0.4,0.6-0.8,1-1.1c0.4-0.3,0.8-0.6,1.2-0.8
			c0.4-0.2,0.8-0.4,1.1-0.7c1-0.7,2-1.5,3-2.2s1.9-1.6,2.8-2.6c0-0.7-0.1-1.2-0.3-1.6c-0.2-0.4-0.6-0.5-1.1-0.5
			c-0.6,0-1.2,0.1-1.8,0.4c-0.6,0.3-1.1,0.7-1.6,1.1c-0.5,0.5-0.9,1-1.3,1.6c-0.4,0.6-0.7,1.3-0.9,2l0.1-4.6
			C74.7,57.6,75,57.4,75.5,57.2z"/>
		<path fill="#5C565A" d="M98.6,63.6c0-0.1,0-0.3,0-0.6c0-0.6-0.1-1.3-0.2-1.9c-0.1-0.6-0.3-1.1-0.5-1.6c-0.3-0.5-0.6-0.9-1-1.2
			c-0.4-0.3-0.9-0.4-1.5-0.4c-0.2,0-0.4,0-0.5,0c-0.2,0-0.4,0.1-0.5,0.1c-0.4,0.1-0.8,0.4-1.1,0.8c-0.3,0.4-0.5,0.9-0.7,1.4
			c-0.2,0.5-0.3,1-0.3,1.6c-0.1,0.6-0.1,1.1-0.1,1.5c0,0.4,0,0.9,0.1,1.3c0,0.4,0.1,0.9,0.2,1.3c0.1,0.9,0.4,1.6,0.8,2.3
			c0.4,0.7,0.9,1.3,1.5,1.7c0.6,0.5,1.2,0.8,1.9,1.1c0.7,0.3,1.3,0.4,2,0.4c0.6,0,1.2-0.1,1.7-0.4c0.6-0.2,1-0.6,1.5-1.1l0.2,0.3
			c-0.8,0.9-1.8,1.7-3,2.2c-1.2,0.6-2.4,0.8-3.5,0.8c-0.9,0-1.8-0.2-2.8-0.5c-0.9-0.3-1.8-0.8-2.6-1.5s-1.4-1.5-1.9-2.4
			c-0.5-1-0.7-2.1-0.7-3.4c0-0.8,0.1-1.7,0.4-2.4s0.6-1.5,1-2.2c0.9-1.3,1.9-2.2,3.3-2.7c1.3-0.5,2.6-0.7,3.9-0.7
			c0.6,0,1.2,0,1.9,0.1c0.6,0.1,1.2,0.2,1.8,0.4L98.6,63.6z"/>
		<path fill="#5C565A" d="M107.6,46.1c0,1.8-0.1,3.6-0.1,5.4c0,1.8,0,3.6-0.1,5.4h0.2c0.8,0,1.5,0,2.4,0c0.8,0,1.6-0.1,2.3-0.3
			l-0.4,1.2c-0.8-0.1-1.5-0.1-2.2-0.1c-0.4,0-0.7,0-1.1,0c-0.4,0-0.7,0-1.1,0.1c0,1.6,0,3.2,0,4.7c0,1.6,0,3.1,0,4.7V70
			c0,0.3,0,0.7,0,1.2c0,0.4,0,0.9,0.1,1.3c0.1,0.4,0.2,0.7,0.4,1c0.2,0.3,0.5,0.4,0.9,0.4c0.3,0,0.7-0.1,1-0.2
			c0.3-0.2,0.6-0.4,0.9-0.6l0.1,0.4c-0.4,0.3-0.8,0.5-1.3,0.7c-0.5,0.2-1,0.2-1.4,0.2c-0.3,0-0.6,0-0.9-0.1
			c-0.4-0.1-0.9-0.3-1.3-0.5c-0.4-0.2-0.8-0.5-1.2-0.8c-0.4-0.3-0.6-0.7-0.8-1.2c-0.2-0.5-0.3-1-0.3-1.7c0-0.8,0-1.5,0-2.3
			c0-0.8,0-1.5,0-2.3c0-1.3,0-2.6,0-4c0-1.3,0-2.7,0-4l-3.1,0l-0.1-0.9c0.2,0,2.4,0.1,2.5,0.1c0.2,0,0.4,0,0.5,0h0.1l0.1-2.8
			c0.4-0.5,0.8-1,1.2-1.7c0.4-0.6,0.7-1.3,1.1-2c0.3-0.7,0.7-1.4,0.9-2.2C107.2,47.4,107.4,46.7,107.6,46.1z"/>
		<path fill="#5C565A" d="M115.5,63.5c0.2,2.3,0.8,4.1,1.9,5.3s2.5,1.8,4.4,1.8c0.2,0,0.4,0,0.6,0c0.2,0,0.5,0,0.7-0.1
			c-0.7,0.5-1.4,0.9-2.1,1.2c-0.7,0.3-1.5,0.4-2.2,0.4c-0.9,0-1.8-0.2-2.6-0.7s-1.6-1.1-2.2-1.8c-0.6-0.8-1.1-1.7-1.5-2.7
			c-0.4-1-0.5-2.1-0.5-3.3c0-1.1,0.2-2.1,0.5-3.1c0.4-0.9,0.8-1.8,1.4-2.4c0.6-0.7,1.3-1.2,2.1-1.6c0.8-0.4,1.6-0.6,2.5-0.6
			s1.7,0.2,2.4,0.6c0.7,0.4,1.4,1,2,1.7s1.1,1.5,1.5,2.4c0.4,0.9,0.8,1.8,1,2.8L115.5,63.5z M120.7,60.6c-0.1-0.6-0.3-1.2-0.5-1.7
			c-0.2-0.5-0.5-1-0.9-1.3c-0.4-0.4-0.8-0.5-1.3-0.5c-0.5,0-0.9,0.2-1.2,0.6c-0.3,0.4-0.6,0.9-0.8,1.5s-0.4,1.2-0.4,1.8
			s-0.1,1.2-0.1,1.7l5.6-0.4C120.9,61.8,120.8,61.2,120.7,60.6z"/>
		<path fill="#5C565A" d="M131,56.5l0,1.8c0.2-0.2,0.5-0.5,0.9-0.8c0.4-0.3,0.7-0.6,1.1-0.8c0.4-0.3,0.7-0.5,1.1-0.7
			c0.4-0.2,0.7-0.3,1-0.3c0.1,0,0.1,0,0.2,0c0,0,0.1,0,0.2,0l-0.5,5.1c-0.1-0.7-0.3-1.4-0.6-2c-0.3-0.6-0.8-0.9-1.4-0.9
			c-0.3,0-0.7,0.1-1,0.2c-0.3,0.1-0.6,0.3-0.9,0.6c-0.2,2.3-0.3,4.6-0.3,6.9c0,0.3,0,0.6,0,1.1c0,0.4,0,0.8,0,1.3c0,0.4,0,0.8,0,1.2
			c0,0.4,0,0.7,0.1,0.9c0.1,0.3,0.2,0.5,0.4,0.7c0.2,0.2,0.4,0.3,0.6,0.4l-5.9,0.6c0.2-0.1,0.4-0.4,0.6-0.6c0.2-0.3,0.3-0.6,0.4-0.9
			c0-0.3,0.1-0.7,0.1-1.2c0-0.5,0.1-0.9,0.1-1.4c0-0.5,0-1,0-1.5c0-0.5,0-0.9,0-1.2c0-0.8,0-1.6,0-2.5s0-1.7-0.1-2.5
			c0-0.4,0-0.8,0-1.2c0-0.4,0-0.8-0.1-1.1c0-0.3-0.2-0.6-0.4-0.8c-0.3-0.2-0.5-0.3-0.7-0.4L131,56.5z"/>
	</g>
	<g>
		<g>
			<path fill="#5C565A" d="M44.3,14.9c-0.1-0.5-0.2-0.7-0.3-0.9c-0.2-0.2-0.3-0.3-1.1-0.3h-0.7v4.9c0,0.8,0.1,0.9,1,0.9v0.3h-2.9
				v-0.3c0.9-0.1,1-0.2,1-0.9v-4.9h-0.6c-0.8,0-1,0.1-1.2,0.3c-0.1,0.2-0.2,0.4-0.3,0.9h-0.3c0-0.6,0.1-1.2,0.1-1.8h0.2
				c0.1,0.2,0.3,0.2,0.5,0.2h3.9c0.3,0,0.3-0.1,0.5-0.2h0.2c0,0.5,0.1,1.2,0.1,1.8L44.3,14.9z"/>
			<path fill="#5C565A" d="M52.1,13.6c-0.8,0.1-0.9,0.1-0.9,0.9v4c0,0.8,0.1,0.9,0.9,0.9v0.3h-2.7v-0.3c0.8-0.1,0.9-0.1,0.9-0.9v-2
				H47v2c0,0.8,0.1,0.9,0.9,0.9v0.3h-2.6v-0.3c0.8-0.1,0.9-0.1,0.9-0.9v-4c0-0.8-0.1-0.9-0.9-0.9v-0.3h2.6v0.3
				C47,13.7,47,13.7,47,14.5v1.6h3.4v-1.6c0-0.8-0.1-0.9-0.9-0.9v-0.3h2.6V13.6z"/>
			<path fill="#5C565A" d="M57.9,18.2c-0.1,0.3-0.3,1.3-0.3,1.6h-4.8v-0.3c0.9-0.1,1-0.1,1-1v-4c0-0.9-0.1-0.9-0.9-1v-0.3h4.5
				c0,0.3,0.1,0.9,0.1,1.4l-0.3,0c-0.1-0.4-0.2-0.6-0.3-0.9c-0.1-0.2-0.4-0.3-1.1-0.3h-0.8c-0.3,0-0.3,0-0.3,0.3v2.3h0.9
				c0.9,0,0.9-0.1,1.1-0.7h0.3v1.9h-0.3c-0.1-0.7-0.2-0.8-1.1-0.8h-0.9v1.9c0,0.5,0.1,0.7,0.2,0.8c0.2,0.1,0.5,0.1,1,0.1
				c0.8,0,1-0.1,1.3-0.3c0.2-0.2,0.4-0.5,0.5-0.9L57.9,18.2z"/>
		</g>
	</g>
	<g>
		<g>
			<path fill="#5C565A" d="M49.7,89.2c-0.2,0.6-0.5,1.7-0.8,2.1c-0.4,0.1-1.6,0.4-2.6,0.4c-3.5,0-5-2.4-5-4.6c0-2.9,2.3-4.9,5.4-4.9
				c1.1,0,2.1,0.3,2.5,0.4c0.1,0.8,0.2,1.4,0.3,2.1l-0.4,0.1c-0.4-1.5-1.2-2.1-2.7-2.1c-2.3,0-3.6,2-3.6,4.1c0,2.6,1.5,4.4,3.7,4.4
				c1.4,0,2.2-0.8,2.9-2.2L49.7,89.2z"/>
			<path fill="#5C565A" d="M60,86.9c0,3-2.1,4.9-4.7,4.9c-2.5,0-4.6-2-4.6-4.7c0-2.5,1.8-4.9,4.7-4.9C57.8,82.2,60,84.1,60,86.9z
				 M52.2,86.7c0,2.6,1.4,4.6,3.4,4.6c1.6,0,3-1.3,3-4c0-3-1.5-4.5-3.4-4.5C53.6,82.7,52.2,84.1,52.2,86.7z"/>
			<path fill="#5C565A" d="M68.7,91.5v-0.4c1.1-0.1,1.2-0.2,1.2-1.7l0-5.7h-0.1l-3.4,7.7h-0.3L63,83.9h0l-0.2,4
				c-0.1,1.1-0.1,1.8,0,2.3c0,0.7,0.4,0.8,1.3,0.9v0.4h-3.3v-0.4c0.8-0.1,1.1-0.3,1.2-0.8c0.1-0.5,0.2-1.1,0.3-2.6l0.2-2.9
				c0.1-1.8,0.1-1.9-1.2-2v-0.4h2.3l3.2,7l3.2-7h2.4v0.4C71,82.9,70.9,83,71,84.4l0.1,5.1c0,1.5,0.1,1.6,1.3,1.7v0.4H68.7z"/>
			<path fill="#5C565A" d="M76.9,82.4c1,0,1.8,0.2,2.4,0.6c0.5,0.4,0.9,1.1,0.9,2c0,1.8-1.4,2.7-2.7,2.9c-0.2,0-0.5,0-0.6,0l-1-0.3
				v2.2c0,1.2,0.1,1.3,1.4,1.3v0.4h-3.8v-0.4c1.1-0.1,1.2-0.2,1.2-1.4v-5.6c0-1.2-0.1-1.3-1.1-1.4v-0.4H76.9z M75.8,87.1
				c0.2,0.1,0.6,0.2,1,0.2c0.9,0,2-0.5,2-2.3c0-1.5-1-2.2-2.1-2.2c-0.4,0-0.7,0.1-0.8,0.2c-0.1,0.1-0.2,0.3-0.2,0.7V87.1z"/>
			<path fill="#5C565A" d="M85.5,91.5v-0.4c0.9-0.1,1-0.2,0.8-0.8c-0.2-0.5-0.5-1.3-0.8-2.2h-3c-0.2,0.6-0.4,1.2-0.6,1.8
				c-0.3,0.9-0.2,1,0.9,1.1v0.4h-3v-0.4c0.9-0.1,1.1-0.2,1.6-1.4l2.9-7.4l0.4-0.1c0.9,2.4,1.8,5.1,2.7,7.5c0.4,1.2,0.6,1.3,1.5,1.4
				v0.4H85.5z M84.2,84L84.2,84c-0.5,1.2-0.9,2.4-1.3,3.6h2.6L84.2,84z"/>
			<path fill="#5C565A" d="M99.3,82.8c-0.8,0-1.1,0.2-1.2,0.8C98,84.1,98,84.7,98,86v5.6h-0.4l-6-7.3h0v3.5c0,1.3,0,2,0.1,2.4
				c0.1,0.7,0.4,0.9,1.3,0.9v0.4h-3.3v-0.4c0.8,0,1.2-0.2,1.2-0.9c0-0.4,0.1-1.1,0.1-2.4v-3.1c0-1,0-1.1-0.3-1.4
				c-0.3-0.4-0.6-0.5-1.2-0.5v-0.4h2.1l5.8,7h0V86c0-1.3-0.1-1.9-0.1-2.3c-0.1-0.6-0.4-0.8-1.4-0.9v-0.4h3.3V82.8z"/>
			<path fill="#5C565A" d="M108.3,82.8c-1,0.1-1.1,0.3-1.7,1.1c-0.6,1-1.1,1.8-1.8,3.1c-0.2,0.4-0.2,0.5-0.2,0.9v1.9
				c0,1.2,0.1,1.3,1.4,1.4v0.4h-4v-0.4c1.2-0.1,1.4-0.2,1.4-1.4v-1.9c0-0.3-0.1-0.4-0.3-0.8c-0.5-0.9-1-1.8-1.8-3.1
				c-0.6-1-0.7-1.1-1.6-1.2v-0.4h3.3v0.4c-1,0.1-1,0.3-0.7,0.8c0.6,1.1,1.3,2.3,1.9,3.3c0.5-0.9,1.3-2.3,1.7-3.2
				c0.3-0.7,0.3-0.8-0.8-0.9v-0.4h3.1V82.8z"/>
		</g>
	</g>
</g>
</svg>
