<?xml version="1.0" encoding="utf-8"?>
<!-- Generator: Adobe Illustrator 18.0.0, SVG Export Plug-In . SVG Version: 6.00 Build 0)  -->
<!DOCTYPE svg PUBLIC "-//W3C//DTD SVG 1.1//EN" "http://www.w3.org/Graphics/SVG/1.1/DTD/svg11.dtd">
<svg version="1.1" id="Layer_1" xmlns="http://www.w3.org/2000/svg" xmlns:xlink="http://www.w3.org/1999/xlink" x="0px" y="0px"
	 viewBox="0 0 140.2 130" enable-background="new 0 0 140.2 130" xml:space="preserve">
<g>
	<g>
		<path fill="#726870" d="M101,27.6L96.1,26c-0.1-0.3-0.4-0.5-0.7-0.5c-0.4,0-0.8,0.3-0.8,0.8v0.3v3.5v6.5c0,0.4,0.3,0.8,0.8,0.8
			s0.8-0.3,0.8-0.8v-5.9l4.9-1.6c0.3-0.1,0.5-0.4,0.5-0.7S101.3,27.8,101,27.6z"/>
		<path fill="#726870" d="M51.5,27.6L46.6,26c-0.1-0.3-0.4-0.5-0.7-0.5c-0.4,0-0.8,0.3-0.8,0.8v0.3v3.5v6.5c0,0.4,0.3,0.8,0.8,0.8
			s0.8-0.3,0.8-0.8v-5.9l4.9-1.6c0.3-0.1,0.5-0.4,0.5-0.7S51.8,27.8,51.5,27.6z"/>
		<path fill="#726870" d="M76.3,12.6L71.3,11c-0.1-0.3-0.4-0.5-0.7-0.5c-0.4,0-0.8,0.3-0.8,0.8v0.3v3.5v6.5c0,0.4,0.3,0.8,0.8,0.8
			s0.8-0.3,0.8-0.8v-5.9l4.9-1.6c0.3-0.1,0.5-0.4,0.5-0.7S76.6,12.7,76.3,12.6z"/>
	</g>
	<rect x="52.5" y="56.7" fill="#D2D2C8" width="9.4" height="20.1"/>
	<rect x="59.8" y="56.7" opacity="0.1" fill="#726870" width="2.2" height="20.1"/>
	<path fill="#407E9D" d="M102.2,46.8l-6.3-11.9c-0.2-0.4-0.8-0.4-1,0l-6.3,11.9l0.6,3.6h12L102.2,46.8z"/>
	<path fill="#407E9D" d="M52.6,46.8l-6.3-11.9c-0.2-0.4-0.8-0.4-1,0l-6.3,11.9l0.5,3.3h12.9L52.6,46.8z"/>
	<path fill="#407E9D" d="M79.7,41.1l-8.6-21.2c-0.2-0.4-0.8-0.4-1,0l-8.6,21.2l0.8,2.8l16.3,0.6L79.7,41.1z"/>
	<rect x="79.3" y="56.7" fill="#D2D2C8" width="9.4" height="20.1"/>
	<rect x="39.2" y="51.9" fill="#E7E6DB" width="13.3" height="23.2"/>
	<path fill="#D4B598" d="M46.1,60.9L46.1,60.9c-1,0-1.7-0.8-1.7-1.7v-1.7c0-1,0.8-1.7,1.7-1.7h0c1,0,1.7,0.8,1.7,1.7v1.7
		C47.9,60.2,47.1,60.9,46.1,60.9z"/>
	<path fill="#D4B598" d="M44.4,75v-8.3c0-1,0.8-1.7,1.7-1.7h0c1,0,1.7,0.8,1.7,1.7V75"/>
	<rect x="62" y="46.1" fill="#E7E6DB" width="17.4" height="31.3"/>
	<path fill="#4E8CAF" d="M51.8,48.3l-5.2-11.2c-0.1-0.3-0.5-0.1-0.5,0.1l1.3,12.1c0,0.1,0.1,0.2,0.3,0.2l4.3-0.4L51.8,48.3z"/>
	<path fill="#4E8CAF" d="M101.3,48.3l-5.2-11.2c-0.1-0.3-0.5-0.1-0.5,0.1l1.3,12.1c0,0.1,0.1,0.2,0.3,0.2l4.3-0.4L101.3,48.3z"/>
	<path fill="#4E8CAF" d="M78.6,42l-7.7-19.7c-0.1-0.4-0.5-0.2-0.5,0.2l1.3,19c0,0.2,0.7,2.6,0.9,2.5l6.2-0.7L78.6,42z"/>
	<rect x="86.9" y="56.7" opacity="0.1" fill="#726870" width="2.2" height="20.1"/>
	<rect x="63.3" y="45.8" opacity="0.1" fill="#B0AFA5" width="3.3" height="31.2"/>
	<rect x="74" y="45.8" fill="#F1F1E8" width="4.4" height="31.2"/>
	<rect x="40.1" y="51.6" opacity="0.1" fill="#B0AFA5" width="2.6" height="25.5"/>
	<rect x="49.1" y="51.6" fill="#F1F1E8" width="2.5" height="25.5"/>
	<g>
		<path fill="#D2D2C8" d="M66.5,54.3h-1.2c-0.4,0-0.8-0.3-0.8-0.8v-0.2c0-0.4,0.3-0.8,0.8-0.8h1.2c0.4,0,0.8,0.3,0.8,0.8v0.2
			C67.3,54,66.9,54.3,66.5,54.3z"/>
		<path fill="#D2D2C8" d="M69.5,54.6h-1.2c-0.4,0-0.8-0.3-0.8-0.8v-0.2c0-0.4,0.3-0.8,0.8-0.8h1.2c0.4,0,0.8,0.3,0.8,0.8v0.2
			C70.3,54.3,69.9,54.6,69.5,54.6z"/>
		<path fill="#D2D2C8" d="M67.3,56.4h-1.2c-0.4,0-0.8-0.3-0.8-0.8v-0.2c0-0.4,0.3-0.8,0.8-0.8h1.2c0.4,0,0.8,0.3,0.8,0.8v0.2
			C68.1,56.1,67.7,56.4,67.3,56.4z"/>
	</g>
	<g>
		<path fill="#D2D2C8" d="M41.7,54.5h-1.2c-0.4,0-0.8-0.3-0.8-0.8v-0.2c0-0.4,0.3-0.8,0.8-0.8h1.2c0.4,0,0.8,0.3,0.8,0.8v0.2
			C42.5,54.2,42.2,54.5,41.7,54.5z"/>
		<path fill="#D2D2C8" d="M44.7,54.8h-1.2c-0.4,0-0.8-0.3-0.8-0.8v-0.2c0-0.4,0.3-0.8,0.8-0.8h1.2c0.4,0,0.8,0.3,0.8,0.8v0.2
			C45.5,54.5,45.2,54.8,44.7,54.8z"/>
		<path fill="#D2D2C8" d="M42.6,56.6h-1.2c-0.4,0-0.8-0.3-0.8-0.8v-0.2c0-0.4,0.3-0.8,0.8-0.8h1.2c0.4,0,0.8,0.3,0.8,0.8v0.2
			C43.3,56.3,43,56.6,42.6,56.6z"/>
	</g>
	<path fill="#726870" d="M65.7,77.2V62c0-2.7,2.2-4.9,4.9-4.9h0c2.7,0,4.9,2.2,4.9,4.9v15.2"/>
	<rect x="88.7" y="51.9" fill="#E7E6DB" width="13.3" height="23.2"/>
	<path fill="#D4B598" d="M95.6,60.9L95.6,60.9c-1,0-1.7-0.8-1.7-1.7v-1.7c0-1,0.8-1.7,1.7-1.7l0,0c1,0,1.7,0.8,1.7,1.7v1.7
		C97.4,60.2,96.6,60.9,95.6,60.9z"/>
	<path fill="#D4B598" d="M93.9,75v-8.3c0-1,0.8-1.7,1.7-1.7l0,0c1,0,1.7,0.8,1.7,1.7V75"/>
	<rect x="89.6" y="51.6" opacity="0.1" fill="#B0AFA5" width="2.3" height="25.5"/>
	<rect x="98.6" y="51.6" fill="#F1F1E8" width="2.6" height="25.5"/>
	<g>
		<path fill="#D2D2C8" d="M91.3,63.1h-1.2c-0.4,0-0.8-0.3-0.8-0.8v-0.2c0-0.4,0.3-0.8,0.8-0.8h1.2c0.4,0,0.8,0.3,0.8,0.8v0.2
			C92.1,62.7,91.7,63.1,91.3,63.1z"/>
		<path fill="#D2D2C8" d="M94.3,63.4h-1.2c-0.4,0-0.8-0.3-0.8-0.8v-0.2c0-0.4,0.3-0.8,0.8-0.8h1.2c0.4,0,0.8,0.3,0.8,0.8v0.2
			C95.1,63.1,94.7,63.4,94.3,63.4z"/>
		<path fill="#D2D2C8" d="M92.1,65.2H91c-0.4,0-0.8-0.3-0.8-0.8v-0.2c0-0.4,0.3-0.8,0.8-0.8h1.2c0.4,0,0.8,0.3,0.8,0.8v0.2
			C92.9,64.9,92.6,65.2,92.1,65.2z"/>
	</g>
	<g>
		<path fill="#D2D2C8" d="M11.9,92.1l18.3-18.3c0,0,13.7-2.1,23.9-1.2c11.1,0.9,15.7,4.3,15.7,4.3s4.5-3.3,15.7-4.3
			c10.3-0.9,23.9,1.2,23.9,1.2l18.3,18.3h0l1.5,8H10.4L11.9,92.1z"/>
	</g>
	<path fill="#FFFFFF" d="M69.8,94.9c0,0,5.8-4.3,22.5-5.8s35.5,2.9,35.5,2.9l-18.3-18.3c0,0-13.7-2.1-23.9-1.2
		c-11.1,0.9-15.7,4.2-15.7,4.2s-4.6-3.2-15.7-4.2c-10.3-0.9-23.9,1.2-23.9,1.2L11.9,92.1c0,0,18.7-4.4,35.5-2.9S69.8,94.9,69.8,94.9
		z"/>
	<path fill="#726870" d="M130.2,102.8H9.5c-0.7,0-1.3-0.6-1.3-1.3l0,0c0-0.7,0.6-1.3,1.3-1.3h120.7c0.7,0,1.3,0.6,1.3,1.3l0,0
		C131.5,102.2,130.9,102.8,130.2,102.8z"/>
	<path fill="#F1F1E8" d="M93.4,46.8c-0.2,0-0.4,0.1-0.5,0.3L92,48.7c-0.1,0.2-0.3,0.3-0.5,0.3h-0.2c-0.2,0-0.4-0.1-0.5-0.3l-1-1.7
		c-0.1-0.2-0.3-0.3-0.5-0.3h-1.8c-0.4,0-0.6,0.3-0.6,0.7l0.8,3.9c0.1,0.3,0.3,0.5,0.6,0.5h14.2c0.3,0,0.5-0.2,0.6-0.5l0.8-3.9
		c0.1-0.4-0.2-0.7-0.6-0.7h-1.8c-0.2,0-0.4,0.1-0.5,0.3l-1,1.7c-0.1,0.2-0.3,0.3-0.5,0.3h-0.2c-0.2,0-0.4-0.1-0.5-0.3l-0.9-1.6
		c-0.1-0.2-0.3-0.3-0.5-0.3H93.4z"/>
	<path fill="#F1F1E8" d="M43.9,46.8c-0.2,0-0.4,0.1-0.5,0.3l-0.9,1.6C42.4,48.9,42.2,49,42,49h-0.2c-0.2,0-0.4-0.1-0.5-0.3l-1-1.7
		c-0.1-0.2-0.3-0.3-0.5-0.3H38c-0.4,0-0.6,0.3-0.6,0.7l0.8,3.9c0.1,0.3,0.3,0.5,0.6,0.5H53c0.3,0,0.5-0.2,0.6-0.5l0.8-3.9
		c0.1-0.4-0.2-0.7-0.6-0.7H52c-0.2,0-0.4,0.1-0.5,0.3l-1,1.7C50.4,48.9,50.2,49,50,49h-0.2c-0.2,0-0.4-0.1-0.5-0.3l-0.9-1.6
		c-0.1-0.2-0.3-0.3-0.5-0.3H43.9z"/>
	<path fill="#D4B598" d="M75.6,46.1v3.5c0,0.8-0.7,1.5-1.5,1.5h-6.9c-0.8,0-1.5-0.7-1.5-1.5v-3.5"/>
	<path fill="#F1F1E8" d="M80.3,45.6l0.8-3.9c0.1-0.4-0.2-0.7-0.6-0.7h-1.8c-0.2,0-0.4,0.1-0.5,0.3l-1,1.7c-0.1,0.2-0.3,0.3-0.5,0.3
		h-0.2c-0.2,0-0.4-0.1-0.5-0.3l-0.9-1.6c-0.1-0.2-0.3-0.3-0.5-0.3h-2c-0.2,0-0.4,0.1-0.5,0.3l-0.8,1.2C71.2,42.8,71,43,70.8,43h-0.2
		c-0.2,0-0.4-0.1-0.5-0.3l-0.8-1.2c-0.1-0.2-0.3-0.3-0.5-0.3h-2c-0.2,0-0.4,0.1-0.5,0.3L65.2,43c-0.1,0.2-0.3,0.3-0.5,0.3h-0.2
		c-0.2,0-0.4-0.1-0.5-0.3l-1-1.7c-0.1-0.2-0.3-0.3-0.5-0.3h-1.8c-0.4,0-0.6,0.3-0.6,0.7l0.8,3.9c0.1,0.3,0.3,0.5,0.6,0.5h18.2
		C80,46.1,80.3,45.9,80.3,45.6z"/>
	<g opacity="0.1">
		<path fill="#726870" d="M55.3,59.2h-1.2c-0.4,0-0.8-0.3-0.8-0.8v-0.2c0-0.4,0.3-0.8,0.8-0.8h1.2c0.4,0,0.8,0.3,0.8,0.8v0.2
			C56.1,58.9,55.7,59.2,55.3,59.2z"/>
		<path fill="#726870" d="M58.3,59.5h-1.2c-0.4,0-0.8-0.3-0.8-0.8v-0.2c0-0.4,0.3-0.8,0.8-0.8h1.2c0.4,0,0.8,0.3,0.8,0.8v0.2
			C59.1,59.2,58.7,59.5,58.3,59.5z"/>
		<path fill="#726870" d="M56.1,61.4H55c-0.4,0-0.8-0.3-0.8-0.8v-0.2c0-0.4,0.3-0.8,0.8-0.8h1.2c0.4,0,0.8,0.3,0.8,0.8v0.2
			C56.9,61,56.5,61.4,56.1,61.4z"/>
	</g>
	<g opacity="0.1">
		<path fill="#726870" d="M82.1,69.2H81c-0.4,0-0.8-0.3-0.8-0.8v-0.2c0-0.4,0.3-0.8,0.8-0.8h1.2c0.4,0,0.8,0.3,0.8,0.8v0.2
			C82.9,68.8,82.5,69.2,82.1,69.2z"/>
		<path fill="#726870" d="M85.1,69.5H84c-0.4,0-0.8-0.3-0.8-0.8v-0.2c0-0.4,0.3-0.8,0.8-0.8h1.2c0.4,0,0.8,0.3,0.8,0.8v0.2
			C85.9,69.1,85.5,69.5,85.1,69.5z"/>
		<path fill="#726870" d="M82.9,71.3h-1.2c-0.4,0-0.8-0.3-0.8-0.8v-0.2c0-0.4,0.3-0.8,0.8-0.8h1.2c0.4,0,0.8,0.3,0.8,0.8v0.2
			C83.7,71,83.4,71.3,82.9,71.3z"/>
	</g>
	<path fill="#999992" d="M66.6,75.2c0,0-10.6,1.4-10.6,3.6c0,2.1,22.3,5.2,22.3,7s-16.8,2.7-16.9,5.8V121l8.5-5.2h0l8.5,5.2V91.5
		c0,0,16.4-2.7,16.4-5.9c0-3.2-27.4-5.8-27.4-7c0-0.5,3-2.2,3-2.2L66.6,75.2z"/>
</g>
</svg>
